<mxfile modified="2022-09-20T07:08:40.847Z" host="app.diagrams.net" agent="5.0 (Macintosh; Intel Mac OS X 10_15_7) AppleWebKit/537.36 (KHTML, like Gecko) Chrome/105.0.0.0 Safari/537.36" etag="gtCtd_9Acxqu8sj0zz3h" version="20.3.3" type="github">
  <diagram id="Ht1M8jgEwFfnCIfOTk4-" name="Page-1">
    <mxGraphModel dx="2066" dy="1072" grid="1" gridSize="10" guides="1" tooltips="1" connect="1" arrows="1" fold="1" page="1" pageScale="1" pageWidth="1169" pageHeight="827" math="0" shadow="0">
      <root>
        <mxCell id="0" />
        <mxCell id="1" parent="0" />
        <mxCell id="wsxd1kLvyJPLzF5j_4qW-13" style="edgeStyle=orthogonalEdgeStyle;rounded=0;orthogonalLoop=1;jettySize=auto;html=1;strokeColor=#808080;strokeWidth=2;" edge="1" parent="1" source="UEzPUAAOIrF-is8g5C7q-109" target="wsxd1kLvyJPLzF5j_4qW-12">
          <mxGeometry relative="1" as="geometry" />
        </mxCell>
        <mxCell id="UEzPUAAOIrF-is8g5C7q-109" value="Admin Page&lt;br&gt;gatepass.sisoul.kr" style="outlineConnect=0;gradientColor=none;fontColor=#545B64;strokeColor=none;fillColor=#879196;dashed=0;verticalLabelPosition=bottom;verticalAlign=top;align=center;html=1;fontSize=12;fontStyle=0;aspect=fixed;shape=mxgraph.aws4.illustration_desktop;pointerEvents=1;labelBackgroundColor=#ffffff;" parent="1" vertex="1">
          <mxGeometry x="231" y="606.5999999999999" width="90" height="81.9" as="geometry" />
        </mxCell>
        <mxCell id="wsxd1kLvyJPLzF5j_4qW-29" style="edgeStyle=orthogonalEdgeStyle;rounded=0;orthogonalLoop=1;jettySize=auto;html=1;entryX=0;entryY=0.5;entryDx=0;entryDy=0;entryPerimeter=0;strokeColor=#808080;strokeWidth=2;" edge="1" parent="1" source="UEzPUAAOIrF-is8g5C7q-110" target="wsxd1kLvyJPLzF5j_4qW-9">
          <mxGeometry relative="1" as="geometry">
            <Array as="points">
              <mxPoint x="386" y="487" />
              <mxPoint x="386" y="417" />
            </Array>
          </mxGeometry>
        </mxCell>
        <mxCell id="UEzPUAAOIrF-is8g5C7q-110" value="Android App&lt;br&gt;for Guest" style="outlineConnect=0;gradientColor=none;fontColor=#545B64;strokeColor=none;fillColor=#879196;dashed=0;verticalLabelPosition=bottom;verticalAlign=top;align=center;html=1;fontSize=12;fontStyle=0;aspect=fixed;shape=mxgraph.aws4.illustration_notification;pointerEvents=1;labelBackgroundColor=#ffffff;" parent="1" vertex="1">
          <mxGeometry x="226" y="446" width="100" height="81" as="geometry" />
        </mxCell>
        <mxCell id="wsxd1kLvyJPLzF5j_4qW-17" style="edgeStyle=orthogonalEdgeStyle;rounded=0;orthogonalLoop=1;jettySize=auto;html=1;strokeColor=#808080;strokeWidth=2;entryX=0.5;entryY=1;entryDx=0;entryDy=0;exitX=0.5;exitY=0;exitDx=0;exitDy=0;" edge="1" parent="1" source="wsxd1kLvyJPLzF5j_4qW-30" target="wsxd1kLvyJPLzF5j_4qW-22">
          <mxGeometry relative="1" as="geometry">
            <mxPoint x="705" y="609.5" as="sourcePoint" />
            <mxPoint x="704.8000000000002" y="340.5" as="targetPoint" />
          </mxGeometry>
        </mxCell>
        <mxCell id="wsxd1kLvyJPLzF5j_4qW-18" style="edgeStyle=orthogonalEdgeStyle;rounded=0;orthogonalLoop=1;jettySize=auto;html=1;entryX=0;entryY=0.5;entryDx=0;entryDy=0;strokeColor=#808080;strokeWidth=2;" edge="1" parent="1" source="wsxd1kLvyJPLzF5j_4qW-9" target="wsxd1kLvyJPLzF5j_4qW-22">
          <mxGeometry relative="1" as="geometry">
            <mxPoint x="665.5" y="417" as="targetPoint" />
          </mxGeometry>
        </mxCell>
        <mxCell id="wsxd1kLvyJPLzF5j_4qW-9" value="Gatepass" style="sketch=0;points=[[0.5,0,0],[1,0.5,0],[0.5,1,0],[0,0.5,0],[0.145,0.145,0],[0.8555,0.145,0],[0.855,0.8555,0],[0.145,0.855,0]];verticalLabelPosition=bottom;html=1;verticalAlign=top;aspect=fixed;align=center;pointerEvents=1;shape=mxgraph.cisco19.lock;fillColor=#005073;strokeColor=none;" vertex="1" parent="1">
          <mxGeometry x="456" y="377" width="80" height="80" as="geometry" />
        </mxCell>
        <mxCell id="wsxd1kLvyJPLzF5j_4qW-15" style="edgeStyle=orthogonalEdgeStyle;rounded=0;orthogonalLoop=1;jettySize=auto;html=1;entryX=0;entryY=0.5;entryDx=0;entryDy=0;strokeColor=#808080;strokeWidth=2;" edge="1" parent="1" source="wsxd1kLvyJPLzF5j_4qW-12" target="wsxd1kLvyJPLzF5j_4qW-14">
          <mxGeometry relative="1" as="geometry" />
        </mxCell>
        <mxCell id="wsxd1kLvyJPLzF5j_4qW-12" value="Cloud Front" style="outlineConnect=0;dashed=0;verticalLabelPosition=bottom;verticalAlign=top;align=center;html=1;shape=mxgraph.aws3.cloudfront;fillColor=#F58536;gradientColor=none;" vertex="1" parent="1">
          <mxGeometry x="379.5" y="602" width="76.5" height="93" as="geometry" />
        </mxCell>
        <mxCell id="wsxd1kLvyJPLzF5j_4qW-16" style="edgeStyle=orthogonalEdgeStyle;rounded=0;orthogonalLoop=1;jettySize=auto;html=1;entryX=0;entryY=0.5;entryDx=0;entryDy=0;strokeColor=#808080;strokeWidth=2;" edge="1" parent="1" source="wsxd1kLvyJPLzF5j_4qW-14" target="wsxd1kLvyJPLzF5j_4qW-30">
          <mxGeometry relative="1" as="geometry">
            <mxPoint x="666" y="648.5" as="targetPoint" />
          </mxGeometry>
        </mxCell>
        <mxCell id="wsxd1kLvyJPLzF5j_4qW-14" value="React" style="shape=image;html=1;verticalAlign=top;verticalLabelPosition=bottom;labelBackgroundColor=#ffffff;imageAspect=0;aspect=fixed;image=https://cdn1.iconfinder.com/data/icons/unicons-line-vol-5/24/react-128.png" vertex="1" parent="1">
          <mxGeometry x="516" y="608.5" width="80" height="80" as="geometry" />
        </mxCell>
        <mxCell id="wsxd1kLvyJPLzF5j_4qW-28" style="edgeStyle=orthogonalEdgeStyle;rounded=0;orthogonalLoop=1;jettySize=auto;html=1;entryX=0;entryY=0.5;entryDx=0;entryDy=0;entryPerimeter=0;strokeColor=#808080;strokeWidth=2;" edge="1" parent="1" source="wsxd1kLvyJPLzF5j_4qW-20" target="wsxd1kLvyJPLzF5j_4qW-9">
          <mxGeometry relative="1" as="geometry" />
        </mxCell>
        <mxCell id="wsxd1kLvyJPLzF5j_4qW-20" value="No Powered FPC" style="image;html=1;image=img/lib/clip_art/finance/Credit_Card_128x128.png" vertex="1" parent="1">
          <mxGeometry x="236" y="312" width="80" height="80" as="geometry" />
        </mxCell>
        <mxCell id="wsxd1kLvyJPLzF5j_4qW-24" style="edgeStyle=orthogonalEdgeStyle;rounded=0;orthogonalLoop=1;jettySize=auto;html=1;strokeColor=#808080;strokeWidth=2;" edge="1" parent="1" source="wsxd1kLvyJPLzF5j_4qW-22" target="wsxd1kLvyJPLzF5j_4qW-23">
          <mxGeometry relative="1" as="geometry" />
        </mxCell>
        <mxCell id="wsxd1kLvyJPLzF5j_4qW-36" style="edgeStyle=orthogonalEdgeStyle;rounded=0;orthogonalLoop=1;jettySize=auto;html=1;entryX=1;entryY=0.5;entryDx=0;entryDy=0;entryPerimeter=0;strokeColor=#808080;strokeWidth=2;" edge="1" parent="1" source="wsxd1kLvyJPLzF5j_4qW-22" target="wsxd1kLvyJPLzF5j_4qW-9">
          <mxGeometry relative="1" as="geometry" />
        </mxCell>
        <mxCell id="wsxd1kLvyJPLzF5j_4qW-22" value="Server" style="shape=image;verticalLabelPosition=bottom;verticalAlign=top;imageAspect=0;aspect=fixed;image=data:image/svg+xml,PHN2ZyB4bWxuczp4bGluaz0iaHR0cDovL3d3dy53My5vcmcvMTk5OS94bGluayIgeG1sbnM9Imh0dHA6Ly93d3cudzMub3JnLzIwMDAvc3ZnIiBvdmVyZmxvdz0iaGlkZGVuIiBoZWlnaHQ9IjI0NzUiIHdpZHRoPSIzOTM4IiB2aWV3Qm94PSIwIDAgMzkzOCAyNDc1Ij48ZGVmcz48Y2xpcFBhdGggaWQ9ImNsaXAwIj48cmVjdCBoZWlnaHQ9IjI0NzUiIHdpZHRoPSIzOTM4IiB5PSIwIiB4PSIyMzEiLz48L2NsaXBQYXRoPjxjbGlwUGF0aCBpZD0iY2xpcDEiPjxyZWN0IGhlaWdodD0iMjMzNSIgd2lkdGg9IjI1NTYiIHk9IjcwIiB4PSI5MjIiLz48L2NsaXBQYXRoPjxjbGlwUGF0aCBpZD0iY2xpcDIiPjxyZWN0IGhlaWdodD0iMjMzNSIgd2lkdGg9IjI1NTYiIHk9IjcwIiB4PSI5MjIiLz48L2NsaXBQYXRoPjxjbGlwUGF0aCBpZD0iY2xpcDMiPjxyZWN0IGhlaWdodD0iMjMzNSIgd2lkdGg9IjI1NTYiIHk9IjcwIiB4PSI5MjIiLz48L2NsaXBQYXRoPjxsaW5lYXJHcmFkaWVudCBpZD0iZmlsbDQiIHNwcmVhZE1ldGhvZD0icGFkIiBncmFkaWVudFVuaXRzPSJ1c2VyU3BhY2VPblVzZSIgeTI9IjkxNC4xNjMiIHgyPSI4MjEuNjg1IiB5MT0iNDY1Ljg3MiIgeDE9IjEwNDEuNDQiPjxzdG9wIHN0b3AtY29sb3I9IiM0MTg3M0YiIG9mZnNldD0iMCIvPjxzdG9wIHN0b3AtY29sb3I9IiM0MThCM0QiIG9mZnNldD0iMC4zMjg4Ii8+PHN0b3Agc3RvcC1jb2xvcj0iIzQxOTYzNyIgb2Zmc2V0PSIwLjYzNTIiLz48c3RvcCBzdG9wLWNvbG9yPSIjM0ZBOTJEIiBvZmZzZXQ9IjAuOTMxOSIvPjxzdG9wIHN0b3AtY29sb3I9IiMzRkFFMkEiIG9mZnNldD0iMSIvPjwvbGluZWFyR3JhZGllbnQ+PGNsaXBQYXRoIGlkPSJjbGlwNSI+PHBhdGggZD0iTTE4ODAuMTcgNDMzLjExNUMxODcwLjk0IDQyNy45MTggMTg1OS45NyA0MjcuOTE4IDE4NTAuNzMgNDMzLjExNUwxNjA3LjY4IDU3My40MzVDMTU5OC40NSA1NzguNjMyIDE1OTMuMjUgNTg4LjQ0OSAxNTkzLjI1IDU5OC44NDNMMTU5My4yNSA4ODAuMDZDMTU5My4yNSA4OTAuNDU0IDE1OTkuMDIgOTAwLjI3MSAxNjA3LjY4IDkwNS40NjhMMTg1MC43MyAxMDQ1Ljc5QzE4NTkuOTcgMTA1MC45OCAxODcwLjk0IDEwNTAuOTggMTg4MC4xNyAxMDQ1Ljc5TDIxMjMuMjIgOTA1LjQ2OEMyMTMyLjQ2IDkwMC4yNzEgMjEzNy42NSA4OTAuNDU0IDIxMzcuNjUgODgwLjA2TDIxMzcuNjUgNTk4Ljg0M0MyMTM3LjY1IDU4OC40NDkgMjEzMS44OCA1NzguNjMyIDIxMjMuMjIgNTczLjQzNUwxODgwLjE3IDQzMy4xMTVaIi8+PC9jbGlwUGF0aD48bGluZWFyR3JhZGllbnQgaWQ9ImZpbGw2IiBzcHJlYWRNZXRob2Q9InBhZCIgZ3JhZGllbnRVbml0cz0idXNlclNwYWNlT25Vc2UiIHkyPSIyNDQuOTAyIiB4Mj0iMTUyMi4xMiIgeTE9IjcwMC40ODIiIHgxPSI5MDUuNTE0Ij48c3RvcCBzdG9wLWNvbG9yPSIjNDE4NzNGIiBvZmZzZXQ9IjAiLz48c3RvcCBzdG9wLWNvbG9yPSIjNDE4NzNGIiBvZmZzZXQ9IjAuMTM3NiIvPjxzdG9wIHN0b3AtY29sb3I9IiM1NEEwNDQiIG9mZnNldD0iMC40MDMyIi8+PHN0b3Agc3RvcC1jb2xvcj0iIzY2Qjg0OCIgb2Zmc2V0PSIwLjcxMzYiLz48c3RvcCBzdG9wLWNvbG9yPSIjNkNDMDRBIiBvZmZzZXQ9IjAuOTA4MSIvPjxzdG9wIHN0b3AtY29sb3I9IiM2Q0MwNEEiIG9mZnNldD0iMSIvPjwvbGluZWFyR3JhZGllbnQ+PGNsaXBQYXRoIGlkPSJjbGlwNyI+PHBhdGggZD0iTTE4ODAuMTcgNDMzLjExNUMxODcwLjk0IDQyNy45MTggMTg1OS45NyA0MjcuOTE4IDE4NTAuNzMgNDMzLjExNUwxNjA3LjY4IDU3My40MzVDMTU5OC40NSA1NzguNjMyIDE1OTMuMjUgNTg4LjQ0OSAxNTkzLjI1IDU5OC44NDNMMTU5My4yNSA4ODAuMDZDMTU5My4yNSA4OTAuNDU0IDE1OTkuMDIgOTAwLjI3MSAxNjA3LjY4IDkwNS40NjhMMTg1MC43MyAxMDQ1Ljc5QzE4NTkuOTcgMTA1MC45OCAxODcwLjk0IDEwNTAuOTggMTg4MC4xNyAxMDQ1Ljc5TDIxMjMuMjIgOTA1LjQ2OEMyMTMyLjQ2IDkwMC4yNzEgMjEzNy42NSA4OTAuNDU0IDIxMzcuNjUgODgwLjA2TDIxMzcuNjUgNTk4Ljg0M0MyMTM3LjY1IDU4OC40NDkgMjEzMS44OCA1NzguNjMyIDIxMjMuMjIgNTczLjQzNUwxODgwLjE3IDQzMy4xMTVaIi8+PC9jbGlwUGF0aD48bGluZWFyR3JhZGllbnQgaWQ9ImZpbGw4IiBzcHJlYWRNZXRob2Q9InBhZCIgZ3JhZGllbnRVbml0cz0idXNlclNwYWNlT25Vc2UiIHkyPSIzMTAuNjkxIiB4Mj0iMTIyMy43MyIgeTE9IjMxMC42OTEiIHgxPSI2NjEuMzQxIj48c3RvcCBzdG9wLWNvbG9yPSIjNkNDMDRBIiBvZmZzZXQ9IjAiLz48c3RvcCBzdG9wLWNvbG9yPSIjNkNDMDRBIiBvZmZzZXQ9IjAuMDkxOTE2NSIvPjxzdG9wIHN0b3AtY29sb3I9IiM2NkI4NDgiIG9mZnNldD0iMC4yODY0Ii8+PHN0b3Agc3RvcC1jb2xvcj0iIzU0QTA0NCIgb2Zmc2V0PSIwLjU5NjgiLz48c3RvcCBzdG9wLWNvbG9yPSIjNDE4NzNGIiBvZmZzZXQ9IjAuODYyNCIvPjxzdG9wIHN0b3AtY29sb3I9IiM0MTg3M0YiIG9mZnNldD0iMSIvPjwvbGluZWFyR3JhZGllbnQ+PGxpbmVhckdyYWRpZW50IGlkPSJmaWxsOSIgc3ByZWFkTWV0aG9kPSJwYWQiIGdyYWRpZW50VW5pdHM9InVzZXJTcGFjZU9uVXNlIiB5Mj0iNjY3LjU2NSIgeDI9IjEyMjMuNzMiIHkxPSI2NjcuNTY1IiB4MT0iNjYxLjM0MSI+PHN0b3Agc3RvcC1jb2xvcj0iIzZDQzA0QSIgb2Zmc2V0PSIwIi8+PHN0b3Agc3RvcC1jb2xvcj0iIzZDQzA0QSIgb2Zmc2V0PSIwLjA5MTkxNjUiLz48c3RvcCBzdG9wLWNvbG9yPSIjNjZCODQ4IiBvZmZzZXQ9IjAuMjg2NCIvPjxzdG9wIHN0b3AtY29sb3I9IiM1NEEwNDQiIG9mZnNldD0iMC41OTY4Ii8+PHN0b3Agc3RvcC1jb2xvcj0iIzQxODczRiIgb2Zmc2V0PSIwLjg2MjQiLz48c3RvcCBzdG9wLWNvbG9yPSIjNDE4NzNGIiBvZmZzZXQ9IjEiLz48L2xpbmVhckdyYWRpZW50PjxsaW5lYXJHcmFkaWVudCBpZD0iZmlsbDEwIiBzcHJlYWRNZXRob2Q9InBhZCIgZ3JhZGllbnRVbml0cz0idXNlclNwYWNlT25Vc2UiIHkyPSI4MjguMTE3IiB4Mj0iMTIyMy43MyIgeTE9IjgyOC4xMTciIHgxPSI2NjEuMzQxIj48c3RvcCBzdG9wLWNvbG9yPSIjNkNDMDRBIiBvZmZzZXQ9IjAiLz48c3RvcCBzdG9wLWNvbG9yPSIjNkNDMDRBIiBvZmZzZXQ9IjAuMDkxOTE2NSIvPjxzdG9wIHN0b3AtY29sb3I9IiM2NkI4NDgiIG9mZnNldD0iMC4yODY0Ii8+PHN0b3Agc3RvcC1jb2xvcj0iIzU0QTA0NCIgb2Zmc2V0PSIwLjU5NjgiLz48c3RvcCBzdG9wLWNvbG9yPSIjNDE4NzNGIiBvZmZzZXQ9IjAuODYyNCIvPjxzdG9wIHN0b3AtY29sb3I9IiM0MTg3M0YiIG9mZnNldD0iMSIvPjwvbGluZWFyR3JhZGllbnQ+PGxpbmVhckdyYWRpZW50IGlkPSJmaWxsMTEiIHNwcmVhZE1ldGhvZD0icGFkIiBncmFkaWVudFVuaXRzPSJ1c2VyU3BhY2VPblVzZSIgeTI9IjkwMC42ODIiIHgyPSIxMjI1LjUxIiB5MT0iOTAwLjY4MiIgeDE9IjY1OS41MSI+PHN0b3Agc3RvcC1jb2xvcj0iIzZDQzA0QSIgb2Zmc2V0PSIwIi8+PHN0b3Agc3RvcC1jb2xvcj0iIzZDQzA0QSIgb2Zmc2V0PSIwLjA5MTkxNjUiLz48c3RvcCBzdG9wLWNvbG9yPSIjNjZCODQ4IiBvZmZzZXQ9IjAuMjg2NCIvPjxzdG9wIHN0b3AtY29sb3I9IiM1NEEwNDQiIG9mZnNldD0iMC41OTY4Ii8+PHN0b3Agc3RvcC1jb2xvcj0iIzQxODczRiIgb2Zmc2V0PSIwLjg2MjQiLz48c3RvcCBzdG9wLWNvbG9yPSIjNDE4NzNGIiBvZmZzZXQ9IjEiLz48L2xpbmVhckdyYWRpZW50PjxsaW5lYXJHcmFkaWVudCBpZD0iZmlsbDEyIiBzcHJlYWRNZXRob2Q9InBhZCIgZ3JhZGllbnRVbml0cz0idXNlclNwYWNlT25Vc2UiIHkyPSIxMTYwLjE1IiB4Mj0iOTU5LjcwMyIgeTE9IjQ1Mi41ODEiIHgxPSIxMzA2LjU1Ij48c3RvcCBzdG9wLWNvbG9yPSIjNDE4NzNGIiBvZmZzZXQ9IjAiLz48c3RvcCBzdG9wLWNvbG9yPSIjNDE4QjNEIiBvZmZzZXQ9IjAuMzI4OCIvPjxzdG9wIHN0b3AtY29sb3I9IiM0MTk2MzciIG9mZnNldD0iMC42MzUyIi8+PHN0b3Agc3RvcC1jb2xvcj0iIzNGQTkyRCIgb2Zmc2V0PSIwLjkzMTkiLz48c3RvcCBzdG9wLWNvbG9yPSIjM0ZBRTJBIiBvZmZzZXQ9IjEiLz48L2xpbmVhckdyYWRpZW50PjwvZGVmcz48ZyB0cmFuc2Zvcm09InRyYW5zbGF0ZSgtMjMxIDApIiBjbGlwLXBhdGg9InVybCgjY2xpcDApIj48cGF0aCB0cmFuc2Zvcm09Im1hdHJpeCgxLjAwMDE1IDAgMCAxIDIzMSAwKSIgZmlsbD0iIzAwN0FDQyIgZD0iTTU5MC4zMDYgODI0Ljc2NCA0MDEuNjc2IDgyNC43NjQgNDAxLjY3NiAxNDA5LjA2IDMyNC42MTQgMTQwOS4wNiAzMjQuNjE0IDgyNC43NjQgMTM3LjEzNCA4MjQuNzY0IDEzNy4xMzQgNzU1Ljc1NCA1OTAuMzA2IDc1NS43NTQgNTkwLjMwNiA4MjQuNzY0Wk05NDUuNzEzIDk0Mi4wODMgNzMwLjYyOCAxNDgzLjgyQzY5Mi42NzIgMTU4MC40NCA2MzguNjE0IDE2MjguNzUgNTY5LjYwMyAxNjI4Ljc1IDU1MC4wNSAxNjI4Ljc1IDUzMy45NDggMTYyNi40NSA1MjEuMjk1IDE2MjNMNTIxLjI5NSAxNTU2LjI4QzUzNy4zOTggMTU2Mi4wMyA1NTIuMzUgMTU2NC4zMyA1NjUuMDAyIDE1NjQuMzMgNjAyLjk1OCAxNTY0LjMzIDYzMC41NjIgMTU0MS4zMyA2NTAuMTE2IDE0OTYuNDdMNjg2LjkyMSAxNDA3LjkxIDUwNS4xOTMgOTQyLjA4MyA1ODguMDA2IDk0Mi4wODMgNzE0LjUyNiAxMzAwLjk0QzcxNS42NzYgMTMwNS41NCA3MTkuMTI2IDEzMTcuMDQgNzIzLjcyOCAxMzM2LjZMNzI2LjAyOCAxMzM2LjZDNzI3LjE3OCAxMzI5LjcgNzMwLjYyOCAxMzE4LjE5IDczNS4yMjkgMTMwMi4wOUw4NjcuNTAxIDk0Mi4wODMgOTQ1LjcxMyA5NDIuMDgzIDk0NS43MTMgOTQyLjA4M1pNMTA2Ny42MyAxMzQxLjIgMTA2NS4zMyAxMzQxLjIgMTA2NS4zMyAxNjIzIDk5MC41NzEgMTYyMyA5OTAuNTcxIDk0Mi4wODMgMTA2NS4zMyA5NDIuMDgzIDEwNjUuMzMgMTAyMy43NSAxMDY3LjYzIDEwMjMuNzVDMTEwNC40NCA5NjEuNjM3IDExNTguNSA5MzAuNTgxIDEyMjguNjYgOTMwLjU4MSAxMjg4LjQ3IDkzMC41ODEgMTMzNS42MyA5NTEuMjg2IDEzNjguOTggOTkyLjY5MSAxNDAyLjM0IDEwMzQuMSAxNDE5LjU5IDEwOTAuNDYgMTQxOS41OSAxMTYwLjYyIDE0MTkuNTkgMTIzOC44MyAxNDAwLjAzIDEzMDAuOTQgMTM2Mi4wOCAxMzQ4LjEgMTMyNC4xMiAxMzk1LjI2IDEyNzIuMzYgMTQxOC4yNiAxMjA2LjggMTQxOC4yNiAxMTQ4LjE1IDE0MjAuNTYgMTEwMC45OSAxMzk0LjExIDEwNjcuNjMgMTM0MS4yTDEwNjcuNjMgMTM0MS4yWk0xMDY2LjQ4IDExNTMuNzIgMTA2Ni40OCAxMjE5LjI4QzEwNjYuNDggMTI1OC4zOCAxMDc5LjEzIDEyOTAuNTkgMTEwNC40NCAxMzE3LjA0IDExMjkuNzQgMTM0My41IDExNjAuOCAxMzU3LjMgMTE5OS45IDEzNTcuMyAxMjQ0Ljc2IDEzNTcuMyAxMjgwLjQyIDEzNDAuMDUgMTMwNi44NyAxMzA1LjU0IDEzMzIuMTggMTI3MS4wNCAxMzQ0LjgzIDEyMjIuNzMgMTM0NC44MyAxMTYwLjYyIDEzNDQuODMgMTEwOC44NiAxMzMzLjMyIDEwNjcuNDUgMTMwOS4xNyAxMDM4LjcgMTI4NS4wMiAxMDA4Ljc5IDEyNTIuODEgOTk0Ljk5MiAxMjExLjQxIDk5NC45OTIgMTE2Ny43IDk5NC45OTIgMTEzMy4xOSAxMDA5Ljk0IDExMDYuNzQgMTAzOS44NSAxMDc5LjEzIDEwNjkuNzUgMTA2Ni40OCAxMTA3LjcxIDEwNjYuNDggMTE1My43MkwxMDY2LjQ4IDExNTMuNzJaTTE4NzcuMzYgMTE5My45NyAxNTQ4LjQxIDExOTMuOTdDMTU0OS41NiAxMjQ1LjczIDE1NjMuMzYgMTI4NS45OSAxNTg5LjgyIDEzMTQuNzQgMTYxNi4yNyAxMzQzLjUgMTY1My4wOCAxMzU3LjMgMTcwMC4yMyAxMzU3LjMgMTc1My4xNCAxMzU3LjMgMTgwMS40NSAxMzQwLjA1IDE4NDUuMTUgMTMwNS41NEwxODQ1LjE1IDEzNzUuN0MxODAzLjc2IDE0MDUuNjEgMTc0OS42OSAxNDIwLjU2IDE2ODIuOTggMTQyMC41NiAxNjE3LjQyIDE0MjAuNTYgMTU2NS42NiAxMzk5Ljg2IDE1MjcuNzEgMTM1Ny4zIDE0ODkuNzUgMTMxNC43NCAxNDcxLjM1IDEyNTQuOTMgMTQ3MS4zNSAxMTc5LjAyIDE0NzEuMzUgMTEwNi41NiAxNDkyLjA1IDEwNDYuNzUgMTUzMy40NiAxMDAxLjg5IDE1NzQuODYgOTU1Ljg4NiAxNjI1LjQ3IDkzMi44ODIgMTY4Ni40MyA5MzIuODgyIDE3NDcuMzkgOTMyLjg4MiAxNzk0LjU2IDk1Mi40MzYgMTgyNy45MSA5OTIuNjkxIDE4NjEuMjcgMTAzMS44IDE4NzguNTEgMTA4Ny4wMSAxODc4LjUxIDExNTcuMTdMMTg3Ny4zNiAxMTkzLjk3IDE4NzcuMzYgMTE5My45N1pNMTgwMC4yOSAxMTMwLjcxQzE4MDAuMjkgMTA4Ny4wMSAxNzg5Ljk1IDEwNTMuNjUgMTc2OS4yNCAxMDI5LjUgMTc0OC41NCAxMDA1LjM0IDE3MTkuNzkgOTkzLjg0MiAxNjg0LjEzIDk5My44NDIgMTY0OC40NyA5OTMuODQyIDE2MTguNTggMTAwNi40OSAxNTk0LjQyIDEwMzEuOCAxNTcwLjI3IDEwNTcuMSAxNTU0LjE2IDEwOTAuNDYgMTU0OC40MSAxMTMwLjcxTDE4MDAuMjkgMTEzMC43MVpNMTkxNC4xNyAxMzg2LjA1IDE5MTQuMTcgMTMzNC4zQzE5NjEuMzMgMTM2NC4yIDIwMDguNDggMTM3OS4xNSAyMDU2Ljc5IDEzNzkuMTUgMjEwNy40IDEzNzkuMTUgMjE0Ni41MSAxMzY4LjggMjE3Mi45NSAxMzQ2Ljk1IDIxOTkuNDEgMTMyNS4xIDIyMTIuMDYgMTI5Ni4zNCAyMjEyLjA2IDEyNTguMzggMjIxMi4wNiAxMjI1LjAzIDIyMDIuODYgMTE5OC41NyAyMTg1LjYyIDExNzcuODcgMjE2OC4zNiAxMTU4LjMyIDIxMjkuMjUgMTEzMC43MSAyMDcwLjYgMTA5Ni4yMSAyMDAzLjg5IDEwNTcuMSAxOTYyLjQ4IDEwMjQuOSAxOTQ1LjIyIDk5OS41OTMgMTkyNy45OCA5NzMuMTM5IDE5MTguNzggOTQzLjIzNCAxOTE4Ljc4IDkwOS44NzggMTkxOC43OCA4NjMuODcxIDE5MzcuMTggODI0Ljc2NCAxOTcyLjgyIDc5Mi41NiAyMDA4LjQ4IDc2MC4zNTUgMjA1Ni43OSA3NDQuMjUyIDIxMTYuNiA3NDQuMjUyIDIxNTUuNzEgNzQ0LjI1MiAyMTk0LjgyIDc1MS4xNTQgMjIzMi43NyA3NjMuODA1TDIyMzIuNzcgODEwLjk2M0MyMTk0LjgyIDc5My43MSAyMTUzLjQxIDc4NC41MDkgMjEwOS43MSA3ODQuNTA5IDIwNjQuODUgNzg0LjUwOSAyMDMwLjMzIDc5Ni4wMTEgMjAwMy44OSA4MTcuODY1IDE5NzcuNDMgODQwLjg2NyAxOTY0Ljc4IDg2OC40NzMgMTk2NC43OCA5MDIuOTc3IDE5NjQuNzggOTM2LjMzMiAxOTczLjk4IDk2Mi43ODggMTk5MS4yMiA5ODIuMzQgMjAwOC40OCAxMDAxLjg5IDIwNDcuNTkgMTAyOS41IDIxMDYuMjQgMTA2Mi44NSAyMTY3LjIgMTA5Ny4zNiAyMjA3LjQ3IDExMjguNDEgMjIyOC4xNyAxMTU0Ljg3IDIyNDguODYgMTE4MS4zMiAyMjU4LjA3IDEyMTIuMzggMjI1OC4wNyAxMjQ4LjAzIDIyNTguMDcgMTI5OC42NCAyMjQwLjgyIDEzMzguOSAyMjA2LjMxIDEzNzEuMSAyMTcxLjgxIDE0MDMuMzEgMjEyMi4zNiAxNDE4LjI2IDIwNTkuMDkgMTQxOC4yNiAyMDM2LjA4IDE0MTguMjYgMjAxMC43OCAxNDE0LjgxIDE5ODAuODggMTQwNy45MSAxOTUwLjk3IDE0MDEuMDEgMTkyOS4xMiAxMzk1LjI2IDE5MTQuMTcgMTM4Ni4wNUwxOTE0LjE3IDEzODYuMDVaTTI2NDYuODQgMTM4OC4zNUMyNjEyLjMyIDE0MDkuMDYgMjU3MC45MyAxNDIwLjU2IDI1MjIuNjIgMTQyMC41NiAyNDU5LjM2IDE0MjAuNTYgMjQwNy42IDEzOTguNzEgMjM2OC40OSAxMzU1IDIzMjkuMzggMTMxMS4yOSAyMzA5Ljg0IDEyNTQuOTMgMjMwOS44NCAxMTgzLjYyIDIzMDkuODQgMTExMC4wMSAyMzMxLjY5IDEwNDkuMDUgMjM3NS4zOSAxMDAxLjg5IDI0MTkuMSA5NTQuNzM2IDI0NzUuNDUgOTMwLjU4MSAyNTQ0LjQ3IDkzMC41ODEgMjU4MC4xMyA5MzAuNTgxIDI2MTQuNjMgOTM3LjQ4MyAyNjQ3Ljk4IDk1Mi40MzVMMjY0Ny45OCA5OTkuNTkzQzI2MTQuNjMgOTc4Ljg5IDI1NzcuODIgOTY4LjUzOSAyNTM4LjcyIDk2OC41MzkgMjQ4My41MSA5NjguNTM5IDI0MzkuOCA5ODguMDkxIDI0MDUuMyAxMDI3LjIgMjM3MC44IDEwNjYuMyAyMzU0LjY4IDExMTguMDYgMjM1NC42OCAxMTgwLjE3IDIzNTQuNjggMTI0MS4xMyAyMzcwLjggMTI4OS40NCAyNDAxLjg1IDEzMjYuMjQgMjQzMi45IDEzNjMuMDUgMjQ3NC4zMSAxMzgxLjQ1IDI1MjQuOTEgMTM4MS40NSAyNTcyLjA3IDEzODEuNDUgMjYxMi4zMiAxMzY4LjggMjY0Ni44NCAxMzQ0LjY1TDI2NDYuODQgMTM4OC4zNSAyNjQ2Ljg0IDEzODguMzVaTTI5MjUuMTkgOTg1Ljc5MUMyOTExLjM4IDk3NS40MzggMjg5NS4yOCA5NzAuODM4IDI4NzUuNzIgOTcwLjgzOCAyODM4LjkxIDk3MC44MzggMjgwNy44NiA5OTAuMzkyIDI3ODMuNzEgMTAyOC4zNSAyNzU4LjM5IDEwNjYuMyAyNzQ2LjkxIDExMjAuMzYgMjc0Ni45MSAxMTkwLjUyTDI3NDYuOTEgMTQxMC4yMSAyNzA1LjQ5IDE0MTAuMjEgMjcwNS40OSA5NDIuMDgzIDI3NDYuOTEgOTQyLjA4MyAyNzQ2LjkxIDEwNDUuNiAyNzQ5LjE5IDEwNDUuNkMyNzU5LjU1IDEwMDkuOTQgMjc3Ni44MSA5ODIuMzQgMjc5OS44MSA5NjIuNzg4IDI4MjIuODIgOTQzLjIzNCAyODQ5LjI2IDkzMi44ODIgMjg4MC4zMyA5MzIuODgyIDI4OTcuNTcgOTMyLjg4MiAyOTEzLjY4IDkzNS4xODMgMjkyNi4zMyA5NDAuOTM0TDI5MjYuMzMgOTg1Ljc5MSAyOTI1LjE5IDk4NS43OTEgMjkyNS4xOSA5ODUuNzkxWk0yOTkxLjkgODI0Ljc2NEMyOTgyLjY4IDgyNC43NjQgMjk3NC42NCA4MjEuMzE0IDI5NjcuNzQgODE0LjQxMyAyOTYwLjgzIDgwNy41MTIgMjk1Ny4zOCA3OTkuNDYxIDI5NTcuMzggNzg5LjExIDI5NTcuMzggNzc4Ljc1OCAyOTYwLjgzIDc3MC43MDYgMjk2Ny43NCA3NjQuOTU1IDI5NzQuNjQgNzU5LjIwNCAyOTgyLjY4IDc1NS43NTQgMjk5MS45IDc1NS43NTQgMzAwMS4xIDc1NS43NTQgMzAwOS4xNCA3NTkuMjA0IDMwMTcuMiA3NjQuOTU1IDMwMjQuMDkgNzcwLjcwNiAzMDI3LjU0IDc3OC43NTggMzAyNy41NCA3ODkuMTEgMzAyNy41NCA3OTguMzExIDMwMjQuMDkgODA3LjUxMiAzMDE3LjIgODE0LjQxMyAzMDA5LjE0IDgyMS4zMTQgMzAwMS4xIDgyNC43NjQgMjk5MS45IDgyNC43NjRaTTI5NzEuMTkgMTQwOS4wNiAyOTcxLjE5IDk0Mi4wODMgMzAxMi41OSA5NDIuMDgzIDMwMTIuNTkgMTQwOS4wNiAyOTcxLjE5IDE0MDkuMDZaTTMxNTYuMzcgMTMyNi4yNCAzMTU0LjA3IDEzMjYuMjQgMzE1NC4wNyAxNjI0LjE0IDMxMTIuNjUgMTYyNC4xNCAzMTEyLjY1IDk0Mi4wODMgMzE1NC4wNyA5NDIuMDgzIDMxNTQuMDcgMTAzOC43IDMxNTYuMzcgMTAzOC43QzMxNzMuNjEgMTAwNC4xOSAzMTk2LjYyIDk3Ny43MzkgMzIyNy42NyA5NTkuMzM2IDMyNTguNzQgOTQwLjkzNCAzMjkzLjI0IDkzMS43MzIgMzMzMC4wNCA5MzEuNzMyIDMzODkuODYgOTMxLjczMiAzNDM1Ljg2IDk1Mi40MzUgMzQ2OS4yMiA5OTIuNjkxIDM1MDIuNTcgMTAzNC4xIDM1MTguNjcgMTA4OS4zMSAzNTE4LjY3IDExNTkuNDcgMzUxOC42NyAxMjM3LjY4IDM0OTkuMTIgMTMwMC45NCAzNDYxLjE2IDEzNDkuMjUgMzQyMy4yMSAxMzk3LjU2IDMzNzIuNiAxNDIxLjcxIDMzMTAuNSAxNDIxLjcxIDMyNDEuNDggMTQyMC41NiAzMTg5LjcyIDEzODkuNSAzMTU2LjM3IDEzMjYuMjRaTTMxNTQuMDcgMTE1Mi41NyAzMTU0LjA3IDEyMTEuMjNDMzE1NC4wNyAxMjU4LjM4IDMxNjkuMDIgMTI5OC42NCAzMTk3Ljc3IDEzMzIgMzIyNy42NyAxMzY1LjM1IDMyNjUuNjQgMTM4Mi42IDMzMTMuOTUgMTM4Mi42IDMzNjEuMDkgMTM4Mi42IDM0MDAuMiAxMzYxLjkgMzQzMC4xMSAxMzIxLjY0IDM0NjAuMDIgMTI4MC4yNCAzNDc0Ljk3IDEyMjcuMzMgMzQ3NC45NyAxMTYwLjYyIDM0NzQuOTcgMTEwMS45NiAzNDYxLjE2IDEwNTUuOTUgMzQzMy41NiAxMDIxLjQ1IDM0MDUuOTUgOTg2Ljk0IDMzNzAuMjkgOTY5LjY4NyAzMzI0LjI5IDk2OS42ODcgMzI3MC4yMyA5NjkuNjg3IDMyMjcuNjcgOTg4LjA5MSAzMTk3Ljc3IDEwMjQuOSAzMTY3Ljg3IDEwNjEuNyAzMTU0LjA3IDExMDMuMTEgMzE1NC4wNyAxMTUyLjU3Wk0zNzcyLjg2IDE0MDIuMTZDMzc1MS4wMSAxNDEyLjUxIDM3MzAuMzEgMTQxNy4xMSAzNzExLjkgMTQxNy4xMSAzNjQyLjg5IDE0MTcuMTEgMzYwOC4zOSAxMzc1LjcgMzYwOC4zOSAxMjkyLjg5TDM2MDguMzkgOTgxLjE4OSAzNTI0LjQyIDk4MS4xODkgMzUyNC40MiA5NDMuMjM0IDM2MDguMzkgOTQzLjIzNCAzNjA4LjM5IDgyMS4zMTQgMzYyOS4xIDgxNC40MTMgMzY0OS44IDgwNy41MTIgMzY0OS44IDk0My4yMzQgMzc3Mi44NiA5NDMuMjM0IDM3NzIuODYgOTgxLjE4OSAzNjQ5LjggOTgxLjE4OSAzNjQ5LjggMTI4OS40NEMzNjQ5LjggMTMyMS42NCAzNjU0LjM5IDEzNDQuNjUgMzY2NC43NCAxMzU5LjYgMzY3NS4xIDEzNzQuNTUgMzY5Mi4zNiAxMzgxLjQ1IDM3MTYuNTEgMTM4MS40NSAzNzMzLjc1IDEzODEuNDUgMzc1Mi4xNiAxMzc1LjcgMzc3Mi44NiAxMzY0LjJMMzc3Mi44NiAxNDAyLjE2IDM3NzIuODYgMTQwMi4xNloiLz48cmVjdCBmaWxsPSIjRkZGRkZGIiBoZWlnaHQ9IjEwNzYiIHdpZHRoPSIzNzQ3IiB5PSI2MTkiIHg9IjMzMyIvPjxnIGNsaXAtcGF0aD0idXJsKCNjbGlwMSkiPjxnIGNsaXAtcGF0aD0idXJsKCNjbGlwMikiPjxnIGNsaXAtcGF0aD0idXJsKCNjbGlwMykiPjxwYXRoIHRyYW5zZm9ybT0ibWF0cml4KDEgMCAwIDEuMDAwMjUgOTIzIDcxLjYzMzIpIiBmaWxsPSIjNjk5RjYzIiBkPSJNMTI2MS45OSAxNTYzLjkyQzEyNTMuMzMgMTU2My45MiAxMjQ1LjI1IDE1NjEuNjEgMTIzNy43NCAxNTU3LjU3TDExNjAuOTYgMTUxMS45NkMxMTQ5LjQyIDE1MDUuNjEgMTE1NS4xOSAxNTAzLjMgMTE1OC42NSAxNTAyLjE1IDExNzQuMjQgMTQ5Ni45NSAxMTc3LjEzIDE0OTUuOCAxMTkzLjI5IDE0ODYuNTYgMTE5NS4wMiAxNDg1LjQxIDExOTcuMzMgMTQ4NS45OCAxMTk5LjA2IDE0ODcuMTRMMTI1Ny45NSAxNTIyLjM1QzEyNjAuMjYgMTUyMy41MSAxMjYzLjE0IDE1MjMuNTEgMTI2NC44OCAxNTIyLjM1TDE0OTUuMjIgMTM4OUMxNDk3LjUzIDEzODcuODQgMTQ5OC42OSAxMzg1LjUzIDE0OTguNjkgMTM4Mi42NUwxNDk4LjY5IDExMTYuNTFDMTQ5OC42OSAxMTEzLjYyIDE0OTcuNTMgMTExMS4zMSAxNDk1LjIyIDExMTAuMTZMMTI2NC44OCA5NzcuMzc4QzEyNjIuNTcgOTc2LjIyNCAxMjU5LjY4IDk3Ni4yMjQgMTI1Ny45NSA5NzcuMzc4TDEwMjcuNiAxMTEwLjE2QzEwMjUuMjkgMTExMS4zMSAxMDI0LjE0IDExMTQuMiAxMDI0LjE0IDExMTYuNTFMMTAyNC4xNCAxMzgyLjY1QzEwMjQuMTQgMTM4NC45NiAxMDI1LjI5IDEzODcuODQgMTAyNy42IDEzODlMMTA5MC41MyAxNDI1LjM3QzExMjQuNTkgMTQ0Mi42OSAxMTQ1Ljk1IDE0MjIuNDggMTE0NS45NSAxNDAyLjI4TDExNDUuOTUgMTEzOS42QzExNDUuOTUgMTEzNi4xNCAxMTQ4Ljg0IDExMzIuNjcgMTE1Mi44OCAxMTMyLjY3TDExODIuMzIgMTEzMi42N0MxMTg1Ljc5IDExMzIuNjcgMTE4OS4yNSAxMTM1LjU2IDExODkuMjUgMTEzOS42TDExODkuMjUgMTQwMi4yOEMxMTg5LjI1IDE0NDcuODggMTE2NC40MyAxNDc0LjQ0IDExMjEuMTMgMTQ3NC40NCAxMTA3Ljg1IDE0NzQuNDQgMTA5Ny40NiAxNDc0LjQ0IDEwNjguMDIgMTQ2MC4wMUwxMDA3LjQgMTQyNS4zN0M5OTIuMzg4IDE0MTYuNzEgOTgzLjE1MSAxNDAwLjU0IDk4My4xNTEgMTM4My4yMkw5ODMuMTUxIDExMTcuMDlDOTgzLjE1MSAxMDk5Ljc3IDk5Mi4zODggMTA4My42IDEwMDcuNCAxMDc0Ljk0TDEyMzcuNzQgOTQxLjU4NUMxMjUyLjE4IDkzMy41MDMgMTI3MS44IDkzMy41MDMgMTI4Ni4yNCA5NDEuNTg1TDE1MTYuNTggMTA3NC45NEMxNTMxLjU5IDEwODMuNiAxNTQwLjgzIDEwOTkuNzcgMTU0MC44MyAxMTE3LjA5TDE1NDAuODMgMTM4My4yMkMxNTQwLjgzIDE0MDAuNTQgMTUzMS41OSAxNDE2LjcxIDE1MTYuNTggMTQyNS4zN0wxMjg2LjI0IDE1NTguNzNDMTI3OS4zMSAxNTYxLjYxIDEyNzAuNjUgMTU2My45MiAxMjYxLjk5IDE1NjMuOTJaIi8+PHBhdGggdHJhbnNmb3JtPSJtYXRyaXgoMSAwIDAgMS4wMDAyNSA5MjMgNzEuNjMzMikiIGZpbGw9IiM2OTlGNjMiIGQ9Ik0xMzMzLjU4IDEzODAuOTJDMTIzMi41NSAxMzgwLjkyIDEyMTEuNzYgMTMzNC43MyAxMjExLjc2IDEyOTUuNDcgMTIxMS43NiAxMjkyLjAxIDEyMTQuNjUgMTI4OC41NSAxMjE4LjY5IDEyODguNTVMMTI0OC43MSAxMjg4LjU1QzEyNTIuMTggMTI4OC41NSAxMjU1LjA2IDEyOTAuODYgMTI1NS4wNiAxMjk0LjMyIDEyNTkuNjggMTMyNC45MiAxMjcyLjk2IDEzMzkuOTMgMTMzNC4xNSAxMzM5LjkzIDEzODIuNjUgMTMzOS45MyAxNDAzLjQzIDEzMjguOTYgMTQwMy40MyAxMzAyLjk4IDE0MDMuNDMgMTI4Ny45NyAxMzk3LjY2IDEyNzcgMTMyMi4wMyAxMjY5LjQ5IDEyNTkuMSAxMjYzLjE0IDEyMTkuODUgMTI0OS4yOSAxMjE5Ljg1IDExOTkuMDYgMTIxOS44NSAxMTUyLjMgMTI1OS4xIDExMjQuNTkgMTMyNC45MiAxMTI0LjU5IDEzOTguODEgMTEyNC41OSAxNDM1LjE4IDExNDkuOTkgMTQzOS44IDEyMDUuNDEgMTQzOS44IDEyMDcuMTUgMTQzOS4yMiAxMjA4Ljg4IDE0MzguMDcgMTIxMC42MSAxNDM2LjkxIDEyMTEuNzYgMTQzNS4xOCAxMjEyLjkyIDE0MzMuNDUgMTIxMi45MkwxNDAyLjg1IDEyMTIuOTJDMTM5OS45NyAxMjEyLjkyIDEzOTcuMDggMTIxMC42MSAxMzk2LjUgMTIwNy43MiAxMzg5LjU3IDExNzUuOTcgMTM3MS42OCAxMTY1LjU4IDEzMjQuMzQgMTE2NS41OCAxMjcxLjIzIDExNjUuNTggMTI2NC44OCAxMTg0LjA1IDEyNjQuODggMTE5Ny45MSAxMjY0Ljg4IDEyMTQuNjUgMTI3Mi4zOCAxMjE5Ljg1IDEzNDMuOTcgMTIyOS4wOCAxNDE0Ljk4IDEyMzguMzIgMTQ0OC40NiAxMjUxLjYgMTQ0OC40NiAxMzAxLjI1IDE0NDguNDYgMTM1Mi4wNSAxNDA2LjMyIDEzODAuOTIgMTMzMy41OCAxMzgwLjkyWiIvPjxwYXRoIHRyYW5zZm9ybT0ibWF0cml4KDEgMCAwIDEuMDAwMjUgOTIzIDcxLjYzMzIpIiBmaWxsPSIjNjk5RjYzIiBkPSJNMTY2Ni4xIDExMDEuNUMxNjY2LjEgMTEyNS43NSAxNjQ1LjkgMTE0NS45NSAxNjIxLjY1IDExNDUuOTUgMTU5Ny40IDExNDUuOTUgMTU3Ny4yIDExMjYuMzIgMTU3Ny4yIDExMDEuNSAxNTc3LjIgMTA3Ni4xIDE1OTcuOTggMTA1Ny4wNSAxNjIxLjY1IDEwNTcuMDUgMTY0NS4zMiAxMDU3LjA1IDE2NjYuMSAxMDc2LjY3IDE2NjYuMSAxMTAxLjVaTTE1ODQuMTMgMTEwMS41QzE1ODQuMTMgMTEyMi4yOCAxNjAwLjg3IDExMzkuMDIgMTYyMS4wNyAxMTM5LjAyIDE2NDEuODYgMTEzOS4wMiAxNjU4LjYgMTEyMS43IDE2NTguNiAxMTAxLjUgMTY1OC42IDEwODAuNzIgMTY0MS44NiAxMDY0LjU1IDE2MjEuMDcgMTA2NC41NSAxNjAxLjQ1IDEwNjQuNTUgMTU4NC4xMyAxMDgwLjcyIDE1ODQuMTMgMTEwMS41Wk0xNjA0LjkxIDEwNzYuNjcgMTYyMi4yMyAxMDc2LjY3QzE2MjggMTA3Ni42NyAxNjM5LjU1IDEwNzYuNjcgMTYzOS41NSAxMDg5Ljk1IDE2MzkuNTUgMTA5OS4xOSAxNjMzLjc3IDExMDAuOTIgMTYzMC4zMSAxMTAyLjA4IDE2MzcuMjQgMTEwMi42NSAxNjM3LjgyIDExMDcuMjcgMTYzOC4zOSAxMTEzLjYyIDE2MzguOTcgMTExNy42NiAxNjM5LjU1IDExMjQuNTkgMTY0MC43IDExMjYuOUwxNjMwLjMxIDExMjYuOUMxNjMwLjMxIDExMjQuNTkgMTYyOC41OCAxMTExLjg5IDE2MjguNTggMTExMS4zMSAxNjI4IDExMDguNDMgMTYyNi44NSAxMTA3LjI3IDE2MjMuMzggMTEwNy4yN0wxNjE0LjcyIDExMDcuMjcgMTYxNC43MiAxMTI3LjQ4IDE2MDQuOTEgMTEyNy40OCAxNjA0LjkxIDEwNzYuNjdaTTE2MTQuMTUgMTA5OC42MSAxNjIxLjY1IDEwOTguNjFDMTYyOCAxMDk4LjYxIDE2MjkuMTYgMTA5My45OSAxNjI5LjE2IDEwOTEuNjggMTYyOS4xNiAxMDg0Ljc2IDE2MjQuNTQgMTA4NC43NiAxNjIxLjY1IDEwODQuNzZMMTYxMy41NyAxMDg0Ljc2IDE2MTMuNTcgMTA5OC42MVoiLz48cGF0aCB0cmFuc2Zvcm09Im1hdHJpeCgxIDAgMCAxLjAwMDI1IDkyMyA3MS42MzMyKSIgZmlsbC1ydWxlPSJldmVub2RkIiBmaWxsPSIjMzMzMzMzIiBkPSJNNTQ3Ljg2MyA1MjMuMDM5QzU0Ny44NjMgNTEyLjY0NyA1NDIuMDkgNTAyLjgzMyA1MzIuODUzIDQ5Ny42MzdMMjg4LjY1MyAzNTYuMTk4QzI4NC42MTIgMzUzLjg4OCAyNzkuOTkzIDM1Mi43MzQgMjc1LjM3NSAzNTIuMTU2IDI3NC43OTcgMzUyLjE1NiAyNzMuMDY2IDM1Mi4xNTYgMjczLjA2NiAzNTIuMTU2IDI2OC40NDcgMzUyLjE1NiAyNjMuODI5IDM1My44ODggMjU5Ljc4OCAzNTYuMTk4TDE1LjAwOTkgNDk3LjA2QzUuNzczMDYgNTAyLjI1NiAwIDUxMi4wNyAwIDUyMy4wMzlMMC41NzczMDYgOTAxLjc1MUMwLjU3NzMwNiA5MDYuOTQ3IDMuNDYzODMgOTEyLjE0MyA4LjA4MjI4IDkxNC40NTIgMTIuNzAwNyA5MTcuMzM5IDE4LjQ3MzggOTE3LjMzOSAyMi41MTQ5IDkxNC40NTJMMTY3Ljk5NiA4MzEuMzJDMTc3LjIzMyA4MjYuMTI0IDE4My4wMDYgODE2LjMxIDE4My4wMDYgODA1LjkxOUwxODMuMDA2IDYyOC42ODZDMTgzLjAwNiA2MTguMjk0IDE4OC43NzkgNjA4LjQ4IDE5OC4wMTYgNjAzLjI4NEwyNTkuNzg4IDU2Ny40OTFDMjY0LjQwNiA1NjQuNjA1IDI2OS42MDIgNTYzLjQ1IDI3NC43OTcgNTYzLjQ1IDI3OS45OTMgNTYzLjQ1IDI4NS4xODkgNTY0LjYwNSAyODkuMjMgNTY3LjQ5MUwzNTEuMDAyIDYwMy4yODRDMzYwLjIzOSA2MDguNDggMzY2LjAxMiA2MTguMjk0IDM2Ni4wMTIgNjI4LjY4NkwzNjYuMDEyIDgwNS45MTlDMzY2LjAxMiA4MTYuMzEgMzcxLjc4NSA4MjYuMTI0IDM4MS4wMjIgODMxLjMyTDUyNS4zNDggOTE0LjQ1MkM1MjkuOTY3IDkxNy4zMzkgNTM1Ljc0IDkxNy4zMzkgNTQwLjM1OCA5MTQuNDUyIDU0NC45NzcgOTEyLjE0MyA1NDcuODYzIDkwNi45NDcgNTQ3Ljg2MyA5MDEuNzUxTDU0Ny44NjMgNTIzLjAzOVoiLz48cGF0aCB0cmFuc2Zvcm09Im1hdHJpeCgxIDAgMCAxLjAwMDI1IDkyMyA3MS42MzMyKSIgZmlsbC1ydWxlPSJldmVub2RkIiBmaWxsPSIjMzMzMzMzIiBkPSJNMTcyNC40MSAxLjczMTkyQzE3MTkuNzktMC41NzczMDYgMTcxNC4wMi0wLjU3NzMwNiAxNzA5Ljk4IDEuNzMxOTIgMTcwNS4zNiA0LjYxODQ0IDE3MDIuNDcgOS4yMzY4OSAxNzAyLjQ3IDE0LjQzMjZMMTcwMi40NyAzODkuNjgxQzE3MDIuNDcgMzkzLjE0NSAxNzAwLjc0IDM5Ni42MDkgMTY5Ny4yOCAzOTguOTE4IDE2OTMuODEgNDAwLjY1IDE2OTAuMzUgNDAwLjY1IDE2ODYuODkgMzk4LjkxOEwxNjI1LjY5IDM2My43MDNDMTYxNi40NiAzNTguNTA3IDE2MDUuNDkgMzU4LjUwNyAxNTk2LjI1IDM2My43MDNMMTM1MS40NyA1MDUuMTQyQzEzNDIuMjQgNTEwLjMzOCAxMzM2LjQ2IDUyMC4xNTIgMTMzNi40NiA1MzAuNTQ0TDEzMzYuNDYgODEyLjg0NkMxMzM2LjQ2IDgyMy4yMzggMTM0Mi4yNCA4MzMuMDUyIDEzNTEuNDcgODM4LjI0OEwxNTk2LjI1IDk3OS42ODhDMTYwNS40OSA5ODQuODgzIDE2MTYuNDYgOTg0Ljg4MyAxNjI1LjY5IDk3OS42ODhMMTg3MC40NyA4MzguMjQ4QzE4NzkuNzEgODMzLjA1MiAxODg1LjQ4IDgyMy4yMzggMTg4NS40OCA4MTIuODQ2TDE4ODUuNDggMTA5LjExMUMxODg1LjQ4IDk4LjE0MiAxODc5LjcxIDg4LjMyNzggMTg3MC40NyA4My4xMzJMMTcyNC40MSAxLjczMTkyWk0xNzAxLjkgNzE5LjlDMTcwMS45IDcyMi43ODcgMTcwMC43NCA3MjUuMDk2IDE2OTguNDMgNzI2LjI1TDE2MTQuNzIgNzc0Ljc0NEMxNjEyLjQxIDc3NS44OTkgMTYwOS41MyA3NzUuODk5IDE2MDcuMjIgNzc0Ljc0NEwxNTIzLjUxIDcyNi4yNUMxNTIxLjIgNzI1LjA5NiAxNTIwLjA1IDcyMi4yMDkgMTUyMC4wNSA3MTkuOUwxNTIwLjA1IDYyMi45MTNDMTUyMC4wNSA2MjAuMDI2IDE1MjEuMiA2MTcuNzE3IDE1MjMuNTEgNjE2LjU2MkwxNjA3LjIyIDU2OC4wNjlDMTYwOS41MyA1NjYuOTE0IDE2MTIuNDEgNTY2LjkxNCAxNjE0LjcyIDU2OC4wNjlMMTY5OC40MyA2MTYuNTYyQzE3MDAuNzQgNjE3LjcxNyAxNzAxLjkgNjIwLjYwNCAxNzAxLjkgNjIyLjkxM0wxNzAxLjkgNzE5LjlaIi8+PHBhdGggdHJhbnNmb3JtPSJtYXRyaXgoMSAwIDAgMS4wMDAyNSA5MjMgNzEuNjMzMikiIGZpbGwtcnVsZT0iZXZlbm9kZCIgZmlsbD0iIzMzMzMzMyIgZD0iTTI1MzguOTkgNjIwLjYwNEMyNTQ4LjIzIDYxNS40MDggMjU1My40MiA2MDUuNTk0IDI1NTMuNDIgNTk1LjIwMkwyNTUzLjQyIDUyNi41MDNDMjU1My40MiA1MTYuMTExIDI1NDcuNjUgNTA2LjI5NyAyNTM4Ljk5IDUwMS4xMDFMMjI5NS45NCAzNjAuMjM5QzIyODYuNzEgMzU1LjA0MyAyMjc1Ljc0IDM1NS4wNDMgMjI2Ni41IDM2MC4yMzlMMjAyMS43MiA1MDEuNjc5QzIwMTIuNDkgNTA2Ljg3NCAyMDA2LjcxIDUxNi42ODkgMjAwNi43MSA1MjcuMDhMMjAwNi43MSA4MDkuMzgyQzIwMDYuNzEgODE5Ljc3NCAyMDEyLjQ5IDgyOS41ODggMjAyMS43MiA4MzQuNzg0TDIyNjQuNzcgOTczLjMzN0MyMjc0LjAxIDk3OC41MzMgMjI4NC45OCA5NzguNTMzIDIyOTMuNjQgOTczLjMzN0wyNDQwLjg1IDg5MS4zNkMyNDQ1LjQ3IDg4OS4wNTEgMjQ0OC4zNSA4ODMuODU1IDI0NDguMzUgODc4LjY1OSAyNDQ4LjM1IDg3My40NjMgMjQ0NS40NyA4NjguMjY4IDI0NDAuODUgODY1Ljk1OEwyMTk0LjkyIDcyNC41MTlDMjE5MC4zIDcyMS42MzIgMjE4Ny40MSA3MTcuMDE0IDIxODcuNDEgNzExLjgxOEwyMTg3LjQxIDYyMy40OUMyMTg3LjQxIDYxOC4yOTQgMjE5MC4zIDYxMy4wOTkgMjE5NC45MiA2MTAuNzg5TDIyNzEuNyA1NjYuOTE0QzIyNzYuMzIgNTY0LjAyOCAyMjgyLjA5IDU2NC4wMjggMjI4Ni43MSA1NjYuOTE0TDIzNjMuNDkgNjEwLjc4OUMyMzY4LjExIDYxMy42NzYgMjM3MC45OSA2MTguMjk0IDIzNzAuOTkgNjIzLjQ5TDIzNzAuOTkgNjkyLjc2N0MyMzcwLjk5IDY5Ny45NjIgMjM3My44OCA3MDMuMTU4IDIzNzguNSA3MDUuNDY3IDIzODMuMTIgNzA4LjM1NCAyMzg4Ljg5IDcwOC4zNTQgMjM5My41MSA3MDUuNDY3TDI1MzguOTkgNjIwLjYwNFoiLz48cGF0aCB0cmFuc2Zvcm09Im1hdHJpeCgxIDAgMCAxLjAwMDI1IDkyMyA3MS42MzMyKSIgZmlsbC1ydWxlPSJldmVub2RkIiBmaWxsPSIjNjk5RjYzIiBkPSJNMjI3Ny40NyA2MDcuMzI2QzIyNzkuMiA2MDYuMTcxIDIyODEuNTEgNjA2LjE3MSAyMjgzLjI0IDYwNy4zMjZMMjMzMC4wMSA2MzQuNDU5QzIzMzEuNzQgNjM1LjYxMyAyMzMyLjg5IDYzNy4zNDUgMjMzMi44OSA2MzkuNjU1TDIzMzIuODkgNjkzLjkyMUMyMzMyLjg5IDY5Ni4yMzEgMjMzMS43NCA2OTcuOTYyIDIzMzAuMDEgNjk5LjExN0wyMjgzLjI0IDcyNi4yNUMyMjgxLjUxIDcyNy40MDUgMjI3OS4yIDcyNy40MDUgMjI3Ny40NyA3MjYuMjVMMjIzMC43MSA2OTkuMTE3QzIyMjguOTggNjk3Ljk2MiAyMjI3LjgyIDY5Ni4yMzEgMjIyNy44MiA2OTMuOTIxTDIyMjcuODIgNjM5LjY1NUMyMjI3LjgyIDYzNy4zNDUgMjIyOC45OCA2MzUuNjEzIDIyMzAuNzEgNjM0LjQ1OUwyMjc3LjQ3IDYwNy4zMjZaIi8+PHBhdGggdHJhbnNmb3JtPSJtYXRyaXgoMSAwIDAgMS4wMDAyNSA5MjMgNzEuNjMzMikiIGZpbGwtcnVsZT0iZXZlbm9kZCIgZmlsbD0idXJsKCNmaWxsNCkiIGQ9Ik05NTcuMTczIDM2MS4zOTNDOTQ3LjkzNiAzNTYuMTk4IDkzNi45NjcgMzU2LjE5OCA5MjcuNzMgMzYxLjM5M0w2ODQuNjg0IDUwMS42NzlDNjc1LjQ0OCA1MDYuODc0IDY3MC4yNTIgNTE2LjY4OSA2NzAuMjUyIDUyNy4wOEw2NzAuMjUyIDgwOC4yMjhDNjcwLjI1MiA4MTguNjE5IDY3Ni4wMjUgODI4LjQzNCA2ODQuNjg0IDgzMy42MjlMOTI3LjczIDk3My45MTVDOTM2Ljk2NyA5NzkuMTEgOTQ3LjkzNiA5NzkuMTEgOTU3LjE3MyA5NzMuOTE1TDEyMDAuMjIgODMzLjYyOUMxMjA5LjQ2IDgyOC40MzQgMTIxNC42NSA4MTguNjE5IDEyMTQuNjUgODA4LjIyOEwxMjE0LjY1IDUyNy4wOEMxMjE0LjY1IDUxNi42ODkgMTIwOC44OCA1MDYuODc0IDEyMDAuMjIgNTAxLjY3OUw5NTcuMTczIDM2MS4zOTNaIi8+PGcgY2xpcC1wYXRoPSJ1cmwoI2NsaXA1KSI+PHBhdGggdHJhbnNmb3JtPSJtYXRyaXgoMSAwIDAgMS4wMDAyNSA5MjMgNzEuNjMzMikiIGZpbGw9InVybCgjZmlsbDYpIiBkPSJNMTIwMC44IDUwMS42NzkgOTU2LjU5NSAzNjEuMzkzQzk1NC4yODYgMzYwLjIzOSA5NTEuNCAzNTkuMDg0IDk0OS4wOSAzNTguNTA3TDY3NS40NDggODI2LjcwMkM2NzcuNzU3IDgyOS41ODggNjgwLjY0MyA4MzEuODk3IDY4My41MyA4MzMuNjI5TDkyNy43MyA5NzMuOTE1QzkzNC42NTggOTc3Ljk1NiA5NDIuNzQgOTc5LjExIDk1MC4yNDUgOTc2LjgwMUwxMjA3LjE1IDUwNi44NzRDMTIwNS40MSA1MDQuNTY1IDEyMDMuMSA1MDIuODMzIDEyMDAuOCA1MDEuNjc5WiIvPjwvZz48ZyBjbGlwLXBhdGg9InVybCgjY2xpcDcpIj48cGF0aCB0cmFuc2Zvcm09Im1hdHJpeCgxIDAgMCAxLjAwMDI1IDkyMyA3MS42MzMyKSIgZmlsbD0idXJsKCNmaWxsOCkiIGQ9Ik05MTkuNjQ4IDMxMC4wMTMgOTE2LjE4NCAzMTEuNzQ1IDkyMC44MDIgMzExLjc0NVoiLz48cGF0aCB0cmFuc2Zvcm09Im1hdHJpeCgxIDAgMCAxLjAwMDI1IDkyMyA3MS42MzMyKSIgZmlsbD0idXJsKCNmaWxsOSkiIGQ9Ik0xMjAwLjggODMzLjYyOUMxMjA3LjcyIDgyOS41ODggMTIxMi45MiA4MjIuNjYgMTIxNS4yMyA4MTUuMTU2TDk0Ny45MzYgMzU3LjkyOUM5NDEuMDA4IDM1Ni43NzUgOTMzLjUwMyAzNTcuMzUyIDkyNy4xNTMgMzYxLjM5M0w2ODQuNjg0IDUwMS4xMDEgOTQ2LjIwNCA5NzcuOTU2Qzk0OS42NjggOTc3LjM3OCA5NTMuNzA5IDk3Ni4yMjQgOTU3LjE3MyA5NzQuNDkyTDEyMDAuOCA4MzMuNjI5WiIvPjxwYXRoIHRyYW5zZm9ybT0ibWF0cml4KDEgMCAwIDEuMDAwMjUgOTIzIDcxLjYzMzIpIiBmaWxsPSJ1cmwoI2ZpbGwxMCkiIGQ9Ik0xMjIzLjg5IDgyOS4wMTEgMTIyMi4xNiA4MjYuMTI0IDEyMjIuMTYgODMwLjE2NVoiLz48cGF0aCB0cmFuc2Zvcm09Im1hdHJpeCgxIDAgMCAxLjAwMDI1IDkyMyA3MS42MzMyKSIgZmlsbD0idXJsKCNmaWxsMTEpIiBkPSJNMTIwMC44IDgzMy42MjkgOTU3LjE3MyA5NzMuOTE1Qzk1My43MDkgOTc1LjY0NiA5NTAuMjQ1IDk3Ni44MDEgOTQ2LjIwNCA5NzcuMzc4TDk1MS45NzcgOTg2LjAzOCAxMjIzLjMxIDgyOS41ODggMTIyMy4zMSA4MjYuMTI0IDEyMTUuODEgODE0LjU3OEMxMjE0LjA3IDgyMi42NiAxMjA4LjMgODI5LjU4OCAxMjAwLjggODMzLjYyOVoiLz48cGF0aCB0cmFuc2Zvcm09Im1hdHJpeCgxIDAgMCAxLjAwMDI1IDkyMyA3MS42MzMyKSIgZmlsbD0idXJsKCNmaWxsMTIpIiBkPSJNMTIwMC44IDgzMy42MjkgOTU3LjE3MyA5NzMuOTE1Qzk1My43MDkgOTc1LjY0NiA5NTAuMjQ1IDk3Ni44MDEgOTQ2LjIwNCA5NzcuMzc4TDk1MS45NzcgOTg2LjAzOCAxMjIzLjMxIDgyOS41ODggMTIyMy4zMSA4MjYuMTI0IDEyMTUuODEgODE0LjU3OEMxMjE0LjA3IDgyMi42NiAxMjA4LjMgODI5LjU4OCAxMjAwLjggODMzLjYyOVoiLz48L2c+PHBhdGggdHJhbnNmb3JtPSJtYXRyaXgoMSAwIDAgMS4wMDAyNSA5MjMgNzEuNjMzMikiIGQ9Ik01MC44MDI5IDIwNTcuNTJDNTcuMTUzMyAyMDgxLjc2IDY2Ljk2NzUgMjEwMy4xMiA4MC4yNDU1IDIxMjEuMDIgOTMuNTIzNSAyMTM4LjkyIDExMC4yNjUgMjE1My4zNSAxMzEuMDQ4IDIxNjMuNzQgMTUxLjgzMSAyMTc0LjEzIDE3Ny4yMzMgMjE3OS4zMyAyMDcuMjUzIDIxNzkuMzMgMjUxLjcwNSAyMTc5LjMzIDI4OC42NTMgMjE2Ny43OCAzMTguMDk1IDIxNDQuMTEgMzQ3LjUzOCAyMTIxLjAyIDM2NS40MzQgMjA4NS44MSAzNzIuOTM5IDIwMzkuMDRMMzg5LjEwNCAyMDM5LjA0QzM4My4zMzEgMjA4OC4xMSAzNjMuNzAzIDIxMjYuNzkgMzMwLjc5NiAyMTUzLjkzIDI5Ny44OSAyMTgxLjA2IDI1Ny40NzggMjE5NC4zNCAyMDguOTg1IDIxOTQuMzQgMTc2LjA3OCAyMTk0LjkyIDE0Ny43OSAyMTg5LjcyIDEyNC42OTggMjE3OC43NSAxMDEuNjA2IDIxNjcuNzggODIuNTU0NyAyMTUyLjIgNjcuNTQ0OCAyMTMyLjU3IDUyLjUzNDggMjExMi4zNiA0MS41NjYgMjA4OS4yNyAzNC42MzgzIDIwNjIuMTQgMjcuNzEwNyAyMDM1IDIzLjY2OTUgMjAwNS41NiAyMy42Njk1IDE5NzQuMzkgMjMuNjY5NSAxOTM5LjE3IDI4Ljg2NTMgMTkwNy45OSAzOS4yNTY4IDE4ODAuODYgNDkuNjQ4MyAxODUzLjczIDYzLjUwMzYgMTgzMC4wNiA4MC4yNDU1IDE4MTEuNTggOTYuOTg3MyAxNzkyLjUzIDExNy4xOTMgMTc3OC4xIDEzOS43MDggMTc2OC4yOSAxNjIuMjIzIDE3NTguNDcgMTg1LjMxNSAxNzUzLjI4IDIwOC45ODUgMTc1My4yOCAyNDEuODkxIDE3NTMuMjggMjcwLjE3OSAxNzU5LjYzIDI5My44NDkgMTc3Mi4zMyAzMTcuNTE4IDE3ODUuMDMgMzM3LjE0NiAxODAxLjc3IDM1Mi4xNTYgMTgyMi41NSAzNjcuMTY2IDE4NDMuMzQgMzc4LjEzNSAxODY3LjAxIDM4NS4wNjMgMTg5NC4xNCAzOTEuOTkxIDE5MjEuMjcgMzk0Ljg3NyAxOTQ4Ljk4IDM5My43MjIgMTk3Ny44NUw0MC40MTE0IDE5NzcuODVDNDAuOTg4NyAyMDA2LjcxIDQ0LjQ1MjUgMjAzMy4yNyA1MC44MDI5IDIwNTcuNTJaTTM2Ni41ODkgMTg4OC4zN0MzNTkuNjYxIDE4NjUuMjcgMzQ4LjY5MyAxODQ0LjQ5IDMzNC44MzcgMTgyNy4xNyAzMjAuOTgyIDE4MDkuODUgMzAzLjY2MyAxNzk2IDI4Mi44OCAxNzg1LjYxIDI2Mi4wOTcgMTc3NS4yMSAyMzcuODUgMTc3MC42IDIxMC43MTcgMTc3MC42IDE4Ny42MjQgMTc3MC42IDE2Ni4yNjQgMTc3NS4yMSAxNDYuMDU4IDE3ODMuODcgMTI1Ljg1MyAxNzkyLjUzIDEwOC41MzMgMTgwNS4yMyA5My41MjM1IDE4MjEuOTggNzguNTEzNiAxODM4LjcyIDY2LjM5MDEgMTg1OC45MiA1Ny4xNTMzIDE4ODIuNTkgNDcuOTE2NCAxOTA2LjI2IDQyLjE0MzMgMTkzMi44MiA0MC45ODg3IDE5NjIuMjZMMzc4LjEzNSAxOTYyLjI2QzM3Ny41NTggMTkzNi4yOCAzNzQuMDk0IDE5MTEuNDYgMzY2LjU4OSAxODg4LjM3WiIvPjxwYXRoIHRyYW5zZm9ybT0ibWF0cml4KDEgMCAwIDEuMDAwMjUgOTIzIDcxLjYzMzIpIiBkPSJNNzQ2LjQ1NiAxNzYzLjY3IDU5MS43MzggMTk2Ny40NiA3NjAuODg5IDIxODYuMjYgNzQwLjEwNiAyMTg2LjI2IDU4MS4zNDcgMTk4MC4xNiA0MjIuNTg4IDIxODYuMjYgNDAyLjk1OSAyMTg2LjI2IDU3MS41MzMgMTk2Ny40NiA0MTcuOTY5IDE3NjMuNjcgNDM5LjMzIDE3NjMuNjcgNTgxLjM0NyAxOTU1LjMzIDcyNi44MjggMTc2My42NyA3NDYuNDU2IDE3NjMuNjdaIi8+PHBhdGggdHJhbnNmb3JtPSJtYXRyaXgoMSAwIDAgMS4wMDAyNSA5MjMgNzEuNjMzMikiIGQ9Ik03OTQuMzczIDIzMzEuMTYgNzk0LjM3MyAxNzYzLjY3IDgxMC41MzcgMTc2My42NyA4MTAuNTM3IDE4ODIuMDIgODEyLjI2OSAxODgyLjAyQzgxNy40NjUgMTg2My41NCA4MjUuNTQ3IDE4NDYuMjIgODM1LjkzOSAxODMwLjY0IDg0Ni4zMyAxODE1LjA1IDg1OC40NTMgMTgwMS4xOSA4NzIuODg2IDE3OTAuMjIgODg3LjMxOSAxNzc4LjY4IDkwMy40ODMgMTc3MC4wMiA5MjEuOTU3IDE3NjMuNjcgOTQwLjQzMSAxNzU3LjMyIDk2MC4wNTkgMTc1NC40MyA5ODEuNDIgMTc1NC40MyAxMDA5LjEzIDE3NTQuNDMgMTAzNC41MyAxNzYwLjIgMTA1Ni40NyAxNzcwLjYgMTA3OC40MSAxNzgxLjU3IDEwOTcuNDYgMTc5Ny4xNSAxMTEzLjA1IDE4MTYuNzggMTEyOC42MyAxODM2LjQxIDExNDAuNzYgMTg2MC4wOCAxMTQ4Ljg0IDE4ODYuNjMgMTE1Ni45MiAxOTEzLjc3IDExNjAuOTYgMTk0Mi42MyAxMTYwLjk2IDE5NzQuMzkgMTE2MC45NiAyMDAzLjgzIDExNTYuOTIgMjAzMi4xMiAxMTQ4Ljg0IDIwNTkuMjUgMTE0MC43NiAyMDg2LjM4IDExMjkuMjEgMjEwOS40NyAxMTE0LjIgMjEyOS42OCAxMDk5LjE5IDIxNDkuODkgMTA4MC4xNCAyMTY2LjA1IDEwNTcuNjIgMjE3Ny42IDEwMzUuMTEgMjE4OS4xNCAxMDA5LjEzIDIxOTUuNDkgOTgwLjI2NSAyMTk1LjQ5IDkzNS4yMzUgMjE5NS40OSA4OTguMjg4IDIxODMuOTUgODY5LjQyMiAyMTYwLjI4IDg0MC41NTcgMjEzNy4xOSA4MjAuOTI5IDIxMDYuMDEgODExLjExNCAyMDY3LjkxTDgwOS4zODIgMjA2Ny45MSA4MDkuMzgyIDIzMzEuMTYgNzk0LjM3MyAyMzMxLjE2Wk0xMDU1Ljg5IDIxNjEuNDNDMTA3Ni42NyAyMTQ5LjMxIDEwOTMuNDIgMjEzMy4xNCAxMTA2LjY5IDIxMTMuNTIgMTExOS45NyAyMDkzLjg5IDExMjkuNzkgMjA3MS45NSAxMTM2LjE0IDIwNDcuNyAxMTQyLjQ5IDIwMjMuNDYgMTE0NS4zNyAxOTk4LjYzIDExNDUuMzcgMTk3NC4zOSAxMTQ1LjM3IDE5NDcuMjUgMTE0MS45MSAxOTIxLjI3IDExMzQuOTggMTg5Ni40NSAxMTI4LjA2IDE4NzIuMiAxMTE4LjI0IDE4NTAuMjYgMTEwNC4zOSAxODMxLjc5IDEwOTEuMTEgMTgxMi43NCAxMDczLjc5IDE3OTcuNzMgMTA1My41OCAxNzg2Ljc2IDEwMzIuOCAxNzc1Ljc5IDEwMDkuMTMgMTc3MC42IDk4MS40MiAxNzcwLjYgOTU0LjI4NiAxNzcwLjYgOTMwLjYxNyAxNzc2LjM3IDkwOS4yNTYgMTc4Ni43NiA4ODcuODk2IDE3OTcuNzMgODcwIDE4MTIuNzQgODU1LjU2NyAxODMxLjIxIDg0MS4xMzQgMTg0OS42OSA4MzAuMTY1IDE4NzEuNjIgODIyLjA4MyAxODk1Ljg3IDgxNC41NzggMTkyMC43IDgxMC41MzcgMTk0Ni42NyA4MTAuNTM3IDE5NzMuODEgODEwLjUzNyAyMDQwLjIgODI2LjEyNCAyMDkxIDg1Ny4yOTkgMjEyNi4yMiA4ODguNDczIDIxNjEuNDMgOTMwLjAzOSAyMTc5LjMzIDk4MS40MiAyMTc5LjMzIDEwMTAuODYgMjE3OS45MSAxMDM1LjY5IDIxNzMuNTYgMTA1NS44OSAyMTYxLjQzWiIvPjxwYXRoIHRyYW5zZm9ybT0ibWF0cml4KDEgMCAwIDEuMDAwMjUgOTIzIDcxLjYzMzIpIiBkPSJNMTIzNi4wMSAyMTg2LjI2IDEyMzYuMDEgMTc2My42NyAxMjUyLjE4IDE3NjMuNjcgMTI1Mi4xOCAxODY4LjE2IDEyNTMuOTEgMTg2OC4xNkMxMjU3Ljk1IDE4NTIgMTI2My43MiAxODM3LjU2IDEyNzEuOCAxODIzLjEzIDEyNzkuODkgMTgwOS4yOCAxMjkwLjg2IDE3OTcuMTUgMTMwNC43MSAxNzg2Ljc2IDEzMTguNTcgMTc3Ni4zNyAxMzM0LjczIDE3NjguMjkgMTM1My43OCAxNzYxLjk0IDEzNzIuODMgMTc1Ni4xNiAxMzk0Ljc3IDE3NTMuMjggMTQyMC4xNyAxNzUzLjg1TDE0MjAuMTcgMTc3MC4wMkMxMzkxLjMxIDE3NjguMjkgMTM2NS45MSAxNzcyLjMzIDEzNDUuMTIgMTc4Mi4xNCAxMzIzLjc2IDE3OTEuOTYgMTMwNi40NCAxODA0LjY2IDEyOTMuMTYgMTgyMS40IDEyNzkuMzEgMTgzOC4xNCAxMjY5LjQ5IDE4NTcuMTkgMTI2Mi41NyAxODc5LjEzIDEyNTYuMjIgMTkwMS4wNyAxMjUyLjc1IDE5MjMuNTggMTI1Mi43NSAxOTQ2LjY3TDEyNTIuNzUgMjE4NS42OCAxMjM2LjAxIDIxODUuNjhaIi8+PHBhdGggdHJhbnNmb3JtPSJtYXRyaXgoMSAwIDAgMS4wMDAyNSA5MjMgNzEuNjMzMikiIGQ9Ik0xNDUwLjc3IDIwNTcuNTJDMTQ1Ny4xMiAyMDgxLjc2IDE0NjYuOTMgMjEwMy4xMiAxNDgwLjIxIDIxMjEuMDIgMTQ5My40OSAyMTM4LjkyIDE1MTAuMjMgMjE1My4zNSAxNTMxLjAxIDIxNjMuNzQgMTU1MS44IDIxNzQuMTMgMTU3Ny4yIDIxNzkuMzMgMTYwNy4yMiAyMTc5LjMzIDE2NTEuNjcgMjE3OS4zMyAxNjg4LjYyIDIxNjcuNzggMTcxOC4wNiAyMTQ0LjExIDE3NDcuNSAyMTIxLjAyIDE3NjUuNCAyMDg1LjgxIDE3NzIuOTEgMjAzOS4wNEwxNzg5LjA3IDIwMzkuMDRDMTc4My4zIDIwODguMTEgMTc2My42NyAyMTI2Ljc5IDE3MzAuNzYgMjE1My45MyAxNjk3Ljg2IDIxODEuMDYgMTY1Ny40NCAyMTk0LjM0IDE2MDguOTUgMjE5NC4zNCAxNTc2LjA0IDIxOTQuOTIgMTU0Ny43NiAyMTg5LjcyIDE1MjQuNjYgMjE3OC43NSAxNTAxLjU3IDIxNjcuNzggMTQ4Mi41MiAyMTUyLjIgMTQ2Ny41MSAyMTMyLjU3IDE0NTIuNSAyMTEyLjM2IDE0NDEuNTMgMjA4OS4yNyAxNDM0LjYgMjA2Mi4xNCAxNDI3LjY4IDIwMzUgMTQyMy42NCAyMDA1LjU2IDE0MjMuNjQgMTk3NC4zOSAxNDIzLjY0IDE5MzkuMTcgMTQyOC44MyAxOTA3Ljk5IDE0MzkuMjIgMTg4MC44NiAxNDQ5LjYxIDE4NTMuNzMgMTQ2My40NyAxODMwLjA2IDE0ODAuMjEgMTgxMS41OCAxNDk2Ljk1IDE3OTIuNTMgMTUxNy4xNiAxNzc4LjEgMTUzOS42NyAxNzY4LjI5IDE1NjIuMTkgMTc1OC40NyAxNTg1LjI4IDE3NTMuMjggMTYwOC45NSAxNzUzLjI4IDE2NDEuODYgMTc1My4yOCAxNjcwLjE1IDE3NTkuNjMgMTY5My44MSAxNzcyLjMzIDE3MTcuNDggMTc4NS4wMyAxNzM3LjExIDE4MDEuNzcgMTc1Mi4xMiAxODIyLjU1IDE3NjcuMTMgMTg0My4zNCAxNzc4LjEgMTg2Ny4wMSAxNzg1LjAzIDE4OTQuMTQgMTc5MS45NiAxOTIxLjI3IDE3OTQuODQgMTk0OC45OCAxNzkzLjY5IDE5NzcuODVMMTQ0MC4zOCAxOTc3Ljg1QzE0NDAuOTUgMjAwNi43MSAxNDQ0LjQyIDIwMzMuMjcgMTQ1MC43NyAyMDU3LjUyWk0xNzY3LjEzIDE4ODguMzdDMTc2MC4yIDE4NjUuMjcgMTc0OS4yNCAxODQ0LjQ5IDE3MzUuMzggMTgyNy4xNyAxNzIxLjUzIDE4MDkuODUgMTcwNC4yMSAxNzk2IDE2ODMuNDIgMTc4NS42MSAxNjYyLjY0IDE3NzUuMjEgMTYzOC4zOSAxNzcwLjYgMTYxMS4yNiAxNzcwLjYgMTU4OC4xNyAxNzcwLjYgMTU2Ni44MSAxNzc1LjIxIDE1NDYuNiAxNzgzLjg3IDE1MjYuNCAxNzkyLjUzIDE1MDkuMDggMTgwNS4yMyAxNDk0LjA3IDE4MjEuOTggMTQ3OS4wNiAxODM4LjcyIDE0NjYuOTMgMTg1OC45MiAxNDU3LjcgMTg4Mi41OSAxNDQ4LjQ2IDE5MDYuMjYgMTQ0Mi42OSAxOTMyLjgyIDE0NDEuNTMgMTk2Mi4yNkwxNzc4LjY4IDE5NjIuMjZDMTc3Ny41MiAxOTM2LjI4IDE3NzQuMDYgMTkxMS40NiAxNzY3LjEzIDE4ODguMzdaIi8+PHBhdGggdHJhbnNmb3JtPSJtYXRyaXgoMSAwIDAgMS4wMDAyNSA5MjMgNzEuNjMzMikiIGQ9Ik0yMTI1LjA2IDE4MzQuNjhDMjExOC43MSAxODE5LjY3IDIxMDguOSAxODA3LjU0IDIwOTcuMzUgMTc5OC4zMSAyMDg1LjIzIDE3ODguNDkgMjA3MC44IDE3ODEuNTcgMjA1NC4wNSAxNzc3LjUyIDIwMzcuMzEgMTc3Mi45MSAyMDE4Ljg0IDE3NzEuMTcgMTk5OC42MyAxNzcxLjE3IDE5NjkuMTkgMTc3MS4xNyAxOTQ1LjUyIDE3NzUuMjEgMTkyOC43OCAxNzgzLjMgMTkxMi4wNCAxNzkxLjM4IDE4OTkuMzQgMTgwMC4wNCAxODkwLjY4IDE4MTAuNDMgMTg4Mi41OSAxODIwLjgyIDE4NzcuNCAxODMwLjY0IDE4NzUuMDkgMTg0MC40NSAxODcyLjc4IDE4NTAuMjYgMTg3MS42MiAxODU3LjE5IDE4NzEuNjIgMTg2MS4yMyAxODcxLjYyIDE4ODIuMDIgMTg3NS42NyAxODk4LjE4IDE4ODQuMzMgMTkwOS4xNSAxODkyLjk4IDE5MjAuMTIgMTkwMy45NSAxOTI4Ljc4IDE5MTguMzkgMTkzNS4xMyAxOTMzLjQgMTk0MC45IDE5NDguOTggMTk0Ni4xIDE5NjYuMyAxOTUwLjcyIDE5ODMuNjIgMTk1NS4zMyAyMDAzLjgzIDE5NjAuNTMgMjAyNi45MiAxOTY2LjMgMjA0My4wOCAxOTcwLjkyIDIwNTkuODMgMTk3NC45NiAyMDc1Ljk5IDE5NzkuNTggMjA5Mi4xNiAxOTg0LjIgMjEwNi41OSAxOTkwLjU1IDIxMTkuMjkgMTk5OC42MyAyMTMxLjk5IDIwMDYuNzEgMjE0Mi4zOCAyMDE3LjExIDIxNTAuNDYgMjAyOS44MSAyMTU4LjU1IDIwNDIuNTEgMjE2Mi41OSAyMDU4LjY3IDIxNjIuNTkgMjA3OC44OCAyMTYyLjU5IDIxMDAuMjQgMjE1Ny45NyAyMTE4LjEzIDIxNDkuMzEgMjEzMy4xNCAyMTQwLjA3IDIxNDguMTUgMjEyOC41MyAyMTYwLjI4IDIxMTQuMDkgMjE2OS41MSAyMDk5LjY2IDIxNzguNzUgMjA4Mi45MiAyMTg1LjY4IDIwNjUuMDIgMjE4OS43MiAyMDQ2LjU1IDIxOTMuNzYgMjAyOC42NSAyMTk2LjA3IDIwMTAuMTggMjE5Ni4wNyAxOTUzLjYgMjE5Ni4wNyAxOTEwLjg4IDIxODMuOTUgMTg4Mi41OSAyMTU5LjEyIDE4NTQuMzEgMjEzNC4zIDE4MzkuMyAyMDk1LjYyIDE4MzkuMyAyMDQyLjUxTDE4NTUuNDYgMjA0Mi41MUMxODU1LjQ2IDIwOTAuNDIgMTg2OC43NCAyMTI1LjA2IDE4OTUuMjkgMjE0Ny41OCAxOTIxLjg1IDIxNjkuNTEgMTk1OS45NSAyMTgxLjA2IDIwMTAuMTggMjE4MS4wNiAyMDI1Ljc3IDIxODEuMDYgMjA0MS4zNSAyMTc5LjMzIDIwNTcuNTIgMjE3NS44NiAyMDczLjY4IDIxNzIuNCAyMDg4LjExIDIxNjYuNjMgMjEwMS4zOSAyMTU4LjU1IDIxMTQuNjcgMjE1MC40NiAyMTI1LjY0IDIxNDAuMDcgMjEzMy43MiAyMTI3Ljk1IDIxNDIuMzggMjExNS4yNSAyMTQ2LjQyIDIxMDAuMjQgMjE0Ni40MiAyMDgxLjc2IDIxNDYuNDIgMjA2My4yOSAyMTQyLjM4IDIwNDguMjggMjEzMy43MiAyMDM2LjczIDIxMjUuMDYgMjAyNS4xOSAyMTE0LjA5IDIwMTUuOTUgMjEwMC44MSAyMDA4LjQ1IDIwODcuNTQgMjAwMC45NCAyMDcxLjk1IDE5OTUuMTcgMjA1NC42MyAxOTkwLjU1IDIwMzcuMzEgMTk4NS45MyAyMDE5LjQxIDE5ODEuODkgMjAwMC45NCAxOTc3LjI3IDE5ODAuNzQgMTk3Mi4wOCAxOTYyLjg0IDE5NjcuNDYgMTk0Ny4yNSAxOTYzLjQyIDE5MzEuNjYgMTk1OC44IDE5MTguMzkgMTk1NC4xOCAxOTA2LjI2IDE5NDguNDEgMTg4OC45NCAxOTQwLjkgMTg3NS42NyAxOTI5LjkzIDE4NjcuNTggMTkxNi4wOCAxODU5LjUgMTkwMi4yMiAxODU1LjQ2IDE4ODMuNzUgMTg1NS40NiAxODYxLjIzIDE4NTUuNDYgMTg0OS42OSAxODU3Ljc3IDE4MzcuNTYgMTg2Mi45NyAxODI0Ljg2IDE4NjguMTYgMTgxMi4xNiAxODc2LjI0IDE4MDAuNjIgMTg4Ny43OSAxNzkwLjIyIDE4OTkuMzQgMTc3OS44MyAxOTE0LjM1IDE3NzEuMTcgMTkzMi4yNCAxNzY0LjgyIDE5NTAuMTQgMTc1OC40NyAxOTcyLjY1IDE3NTUuMDEgMTk5OC42MyAxNzU1LjAxIDIwNDUuOTcgMTc1NS4wMSAyMDgyLjkyIDE3NjUuOTggMjExMC42MyAxNzg3LjM0IDIxMzcuNzYgMTgwOC43IDIxNTEuNjIgMTg0Mi43NiAyMTUxLjYyIDE4OTAuMUwyMTM1LjQ1IDE4OTAuMUMyMTM0Ljg4IDE4NjcuNTggMjEzMS45OSAxODQ5LjExIDIxMjUuMDYgMTgzNC42OFoiLz48cGF0aCB0cmFuc2Zvcm09Im1hdHJpeCgxIDAgMCAxLjAwMDI1IDkyMyA3MS42MzMyKSIgZD0iTTI1MDYuMDggMTgzNC42OEMyNDk5LjczIDE4MTkuNjcgMjQ4OS45MiAxODA3LjU0IDI0NzguMzcgMTc5OC4zMSAyNDY2LjI1IDE3ODguNDkgMjQ1MS44MiAxNzgxLjU3IDI0MzUuMDcgMTc3Ny41MiAyNDE4LjMzIDE3NzIuOTEgMjM5OS44NiAxNzcxLjE3IDIzNzkuNjUgMTc3MS4xNyAyMzUwLjIxIDE3NzEuMTcgMjMyNi41NCAxNzc1LjIxIDIzMDkuOCAxNzgzLjMgMjI5My4wNiAxNzkxLjM4IDIyODAuMzYgMTgwMC4wNCAyMjcxLjcgMTgxMC40MyAyMjYzLjYyIDE4MjAuODIgMjI1OC40MiAxODMwLjY0IDIyNTYuMTEgMTg0MC40NSAyMjUzLjggMTg1MC4yNiAyMjUyLjY1IDE4NTcuMTkgMjI1Mi42NSAxODYxLjIzIDIyNTIuNjUgMTg4Mi4wMiAyMjU2LjY5IDE4OTguMTggMjI2NS4zNSAxOTA5LjE1IDIyNzQuMDEgMTkyMC4xMiAyMjg0Ljk4IDE5MjguNzggMjI5OS40MSAxOTM1LjEzIDIzMTQuNDIgMTk0MC45IDIzMzAuMDEgMTk0Ni4xIDIzNDcuMzIgMTk1MC43MiAyMzY0LjY0IDE5NTUuMzMgMjM4NC44NSAxOTYwLjUzIDI0MDcuOTQgMTk2Ni4zIDI0MjQuMTEgMTk3MC45MiAyNDQwLjg1IDE5NzQuOTYgMjQ1Ny4wMSAxOTc5LjU4IDI0NzMuMTggMTk4NC4yIDI0ODcuNjEgMTk5MC41NSAyNTAwLjMxIDE5OTguNjMgMjUxMy4wMSAyMDA2LjcxIDI1MjMuNCAyMDE3LjExIDI1MzEuNDkgMjAyOS44MSAyNTM5LjU3IDIwNDIuNTEgMjU0My42MSAyMDU4LjY3IDI1NDMuNjEgMjA3OC44OCAyNTQzLjYxIDIxMDAuMjQgMjUzOC45OSAyMTE4LjEzIDI1MzAuMzMgMjEzMy4xNCAyNTIxLjA5IDIxNDguMTUgMjUwOS41NSAyMTYwLjI4IDI0OTUuMTEgMjE2OS41MSAyNDgwLjY4IDIxNzguNzUgMjQ2My45NCAyMTg1LjY4IDI0NDYuMDQgMjE4OS43MiAyNDI3LjU3IDIxOTMuNzYgMjQwOS42NyAyMTk2LjA3IDIzOTEuMiAyMTk2LjA3IDIzMzQuNjIgMjE5Ni4wNyAyMjkxLjkgMjE4My45NSAyMjYzLjYyIDIxNTkuMTIgMjIzNS4zMyAyMTM0LjMgMjIyMC4zMiAyMDk1LjYyIDIyMjAuMzIgMjA0Mi41MUwyMjM2LjQ4IDIwNDIuNTFDMjIzNi40OCAyMDkwLjQyIDIyNDkuNzYgMjEyNS4wNiAyMjc2LjMyIDIxNDcuNTggMjMwMi44NyAyMTY5LjUxIDIzNDAuOTcgMjE4MS4wNiAyMzkxLjIgMjE4MS4wNiAyNDA2Ljc5IDIxODEuMDYgMjQyMi4zNyAyMTc5LjMzIDI0MzguNTQgMjE3NS44NiAyNDU0LjcgMjE3Mi40IDI0NjkuMTQgMjE2Ni42MyAyNDgyLjQxIDIxNTguNTUgMjQ5NS42OSAyMTUwLjQ2IDI1MDYuNjYgMjE0MC4wNyAyNTE0Ljc0IDIxMjcuOTUgMjUyMy40IDIxMTUuMjUgMjUyNy40NCAyMTAwLjI0IDI1MjcuNDQgMjA4MS43NiAyNTI3LjQ0IDIwNjMuMjkgMjUyMy40IDIwNDguMjggMjUxNC43NCAyMDM2LjczIDI1MDYuMDggMjAyNS4xOSAyNDk1LjExIDIwMTUuOTUgMjQ4MS44NCAyMDA4LjQ1IDI0NjguNTYgMjAwMC45NCAyNDUyLjk3IDE5OTUuMTcgMjQzNS42NSAxOTkwLjU1IDI0MTguMzMgMTk4NS45MyAyNDAwLjQ0IDE5ODEuODkgMjM4MS45NiAxOTc3LjI3IDIzNjEuNzYgMTk3Mi4wOCAyMzQzLjg2IDE5NjcuNDYgMjMyOC4yNyAxOTYzLjQyIDIzMTIuNjkgMTk1OC44IDIyOTkuNDEgMTk1NC4xOCAyMjg3LjI4IDE5NDguNDEgMjI2OS45NyAxOTQwLjkgMjI1Ni42OSAxOTI5LjkzIDIyNDguNjEgMTkxNi4wOCAyMjQwLjUyIDE5MDIuMjIgMjIzNi40OCAxODgzLjc1IDIyMzYuNDggMTg2MS4yMyAyMjM2LjQ4IDE4NDkuNjkgMjIzOC43OSAxODM3LjU2IDIyNDMuOTkgMTgyNC44NiAyMjQ5LjE4IDE4MTIuMTYgMjI1Ny4yNiAxODAwLjYyIDIyNjguODEgMTc5MC4yMiAyMjgwLjM2IDE3NzkuODMgMjI5NS4zNyAxNzcxLjE3IDIzMTMuMjYgMTc2NC44MiAyMzMxLjE2IDE3NTguNDcgMjM1My42OCAxNzU1LjAxIDIzNzkuNjUgMTc1NS4wMSAyNDI2Ljk5IDE3NTUuMDEgMjQ2My45NCAxNzY1Ljk4IDI0OTEuNjUgMTc4Ny4zNCAyNTE4Ljc4IDE4MDguNyAyNTMyLjY0IDE4NDIuNzYgMjUzMi42NCAxODkwLjFMMjUxNi40OCAxODkwLjFDMjUxNS45IDE4NjcuNTggMjUxMi40MyAxODQ5LjExIDI1MDYuMDggMTgzNC42OFoiLz48L2c+PC9nPjwvZz48L2c+PC9zdmc+" vertex="1" parent="1">
          <mxGeometry x="626.4200000000001" y="368" width="155.84" height="98" as="geometry" />
        </mxCell>
        <mxCell id="wsxd1kLvyJPLzF5j_4qW-35" style="edgeStyle=orthogonalEdgeStyle;rounded=0;orthogonalLoop=1;jettySize=auto;html=1;entryX=1;entryY=0.5;entryDx=0;entryDy=0;strokeColor=#808080;strokeWidth=2;" edge="1" parent="1" source="wsxd1kLvyJPLzF5j_4qW-23" target="wsxd1kLvyJPLzF5j_4qW-22">
          <mxGeometry relative="1" as="geometry" />
        </mxCell>
        <mxCell id="wsxd1kLvyJPLzF5j_4qW-23" value="DB" style="sketch=0;outlineConnect=0;fontColor=#232F3E;gradientColor=none;fillColor=#2E27AD;strokeColor=none;dashed=0;verticalLabelPosition=bottom;verticalAlign=top;align=center;html=1;fontSize=12;fontStyle=0;aspect=fixed;pointerEvents=1;shape=mxgraph.aws4.rds_mysql_instance;" vertex="1" parent="1">
          <mxGeometry x="866" y="378" width="78" height="78" as="geometry" />
        </mxCell>
        <mxCell id="wsxd1kLvyJPLzF5j_4qW-30" value="NGINX" style="shape=image;verticalLabelPosition=bottom;verticalAlign=top;imageAspect=0;aspect=fixed;image=data:image/png,iVBORw0KGgoAAAANSUhEUgAAB4EAAAKFAQMAAAD4Ww2vAAAAAXNSR0IArs4c6QAAAARnQU1BAACxjwv8YQUAAAAGUExURUdwTA2XTaGfNvIAAAABdFJOUwBA5thmAAAXCklEQVR42u1dO5LkSHJNeMG2IdBYEEdi4whzg8ZR9iYdAgWKPMIeBSLFvgFhtBVWBGktwMbQCNr0r7qAiHB/Ho7MMlt/Qn+qEkA89+e/ADLzdnM4HA6Hw+FwOBwOh8PhcDgcDofD4XA4HA6Hw+FwOBwOh8PhcDgcDofD4XA4HA6Hw+FwOBwOh8PhcDgcDofD4XA4HA6Hw+FwOBwOh8PhcDgcDofD4XA4HA6Hw+FwOBwOh8PhcDgcDofD4XA47oUYp38uws8xrg+5MD2K8e+3218ecuGnBxFu/vt2a5p/Jl0/xRjj/CZU/S4Gzj0WAfgvf/7R1ya/nX3JO3axT5E9zccYl2rG7//08VZ9DnYhMXIe/MCK7aseqxl//PMs++v1z/zyj2wi62LOKs1pIWnvzKlqk8Gesf3r9b7jl//htSokqeADS+fbugPrnTX94zSmjGVfXegD642nwxHP6YWcLxM4m5QN12T8liecIvJ0tIVUXMtxrayomd7u20JW9iQnuzUY4+9nmQ8/COza9uNaJ9ZIh+tTqh8pNUPdt79GoHfrsr95KU+/ff3zr2yv1Pw0SvOzd8vjr8z1X9JP4Mx28ttTwcdb9kLLIQ0s/NrmwxVXNgKLwfIhRi6QP6Qv9A5j/P54luwrs4c883R+LKqgxvGkthO+v6QVK7ek+PYgUWIV+hJx39fYBD6cAqeCoq0zRfa54OM9q5TtGBQ3fm1HPU68ZKes/Yn3SnP4+8ar4vTaF6XQ0dkTL5TpoMffWT3eBjZxFWz9M0OFZJSlEXL9yn688szG5M+X/Pj/ystiyfr4xVETG3kHDFhbHQ7e56eo3w7/aLgV/cKtyzIeAAIjwI9/7cAyH3IMn26Ydyi9sp7tJga9AX5xUDgc3vFWo+PCA7vWNss48MVGNcTLJd9ycfDTWi1v7N/ZRNwUm4ZDhlrEg0SilWqOYxV73eaYB19anrk45Z3KI6X/TTebDIX2JJJfjAcV9lJZFC/RsIvugNd34rhuBHIfhGdvbslQp0wQhdtdIJZMd0wlL579C6YXyhhr5FJmKx4WE/moBWbNk3Q7oR7bNBuyiddWF7aF2Muvpz3+IECxRGDluUbtbVUTM0KFlLR1l4Dc1Mi5j7yl6fjCgZXFkFn4gKRXG0gbmkZxkhHzcWu68sCEWIcoqhEGbOBPJchojc6V8q57kDogcN5pMg4hbeg1F7RiynxOkHrvc8e82iAdHuStgHHQl6GxjlBf94KAGIku4mAwY2ZFMorW2mfYGw1JoUKUKg017FoH1Mf9Y8K+11i0R0RqQ4HL7K21ygUSCihjSIhXu54phS3iBFI39+GOFiH811XbLPWzT1PJuMVP3wqINaaLvD5Qy3rrro3AzjIEFPV8BA6hO8/+d+tiB5zxaOiD2g5uwK8/4oyHi52A1MARj6qAM+4NfWA7H/aCxNwoKp3pvk9dk8XWDQJ42eTq8VoXE26SVnGyVq26qwUjWUCnYGzaK7cXHz3Kw4j0wXO//izhsMikzkHjyXDPSKzMe708s9Dj+VgUv67srlW2WMsEXKf7EY70RuWewTCzXN2lk5wWXdU1XFp7Tj9r5D4gixraWQizLiRCcUXLHZPOvRLjKNYnWXQNAv3XzBrJhUzF8w8qxqbur0kKHX7+UUVLXlGGxyu/K4b1LHSkuKKMNn6C9DGXlN8os8J4exuQSIiKrCbrYA3K7GM4fTfiq9GdwpOsDbqUXtQpV2LyIM69evKxtPIgZNzdfdmAU9aSIAelj9s7KPaagj8Wtg/oXkz0w1Pa8FtJkOFiVi0cZ+Yt1+tFHENolzJ+I7cX0wl0L7iO1DEYDJ2gL3WyI5uC6DYx47HGCWZIryIW3NOV8jrda0IwN0vIG6a/urIMdvmnIraG/IIWMeM3sdOVy59TfrFjac4iA7/8coEvzSsMBqOEVIWdUBVkO/D8vfhf02o/Z1/XFOVABuYN2WV8MUgYOaEt2cVSMROQbfs/Za9l3s6s2cWavRVJYpfAWODKshZyqogAY7T9jxeMErnat2UTaF9sSKm+/S+dwuBT1nJr2LOmGYq2IdNmeL9geApSPfW5K60AY1EMlRLFUt2yNmJTdLL4MchcXSG27vmRmG3ORgvA2HKnS9mykrgSUu6IGWDcglRWNqEabrDMGf23ZdPQ1Zqv1UsnyRGv4pd5JoSUaSOd0JdC8m6tg2HNVIO+nNTJZDbNlt/6j5nMp/gt89KhXDINdDvWpiDl2feMHMayZciETb6NvvAZn5gJ+VBWP9Vv6ASZDZTDU5D/qpWUY45xb7Y8pbsbQFEkKccc465uTfWjBDKmNJJyzDFuoTVFOCewXaiwaf9FRUw5vvy+YO3nPnfALsg3mzLlWPOOwLwX9uKqzJ8IShdkphxzlCx3p3rrg9IFmSnHrBMDortN4AezlitXkJlyzDKGWpDVfpQYEXe0gnLMMh4qxbpX+ljY3ryQ4cqxba5eisrTDE9YsW8E5Zhl3FdF2sWFMFWQuXLMLgMKvtmqtxQuL1WQuXLMMq77rLDqUaKFCzJXjlnGkBTtv+alw9Jiz5djg+AKYqUrBN7DEzJXjlnG0KdWBdPtBUFaPBdkthzzPq7dxFhuF+JcedhyzDMe5YEemXyqGCVGrDg0fDnmGT/2PRABLchsOeYZcy1Iy3SUW83wxGWRc0Fmy7FpI7QxFQQfJQi94sCWY55xV/n7KnD9z7kgT6wXqPai3LBYNUpw5jxp9plfE9UK67HP9bG1c8EZA93wwiyKYCey5mT72lmRuUJl9aoZJQam2PPb4ZOQMbCvPqqOwk++B7msiv4iVp+17+WrGSUCU/rYHf4oTUyrqpk3Hxb5MOC2Sncp480wGS82clmljDiLEHsi+cePB26paI9ObMRG3E58rhb3DdFa1K8uPduMGjnGUeUGVlhogHR85Z3QcpxbcVDMGvtNFWp1/dwMdyjEvrKxarvxqWPg5bvA7RPxppNW0Y0Nb3SUGPk4W+HUQrzpxocNi4LY2OCjCNNWKdRWVlno9kPgme2w7EgjFgzqVqwRLCjCbQvxxumFAlggCiaVj8syi/ysu2GolkaJVVoHFpWCZjnjKC1AgmFxUQx5J1PPqoI8AcpRtCD299kkJ19Qydfu3gqK9eezIn7+6JO05QrYTFVIay1v06aS/JdG8iPNng9XkHckHwqbrks/XEE0Tu9oF0iC8JAN8vbDYpDwiuguAglerPsIN9M9n02VSRbtkntRydyvFPiqKhEzwni7PRz8ng9XkCeEsbDp6i60USujtYCCJ0FCaB/j465W8BFLPbKmqxeFWv2ezwRvRGQzCwliQFZ0zR9xEez5lDPmdsVEduVTIoI9n/LvVowxfNtsvpD8rvLHgjGWNV1XfqSmdEdxwnxAEkkMVRe+tuUqiGvCGMv2fS58WyJJt0oWbHEkCZ1O4gdr8qI9nxu+6UfoxR/SgBSzIrixS1XDH4GvN9/zueGb96Lv8HrIR4CKb0SCN2hEHz7RPGJYHMQ5ArsJR6KkL8hK5qPTKI6YCapahF5dM95ct+dTojahjMHJwHp0auT6WSCxk4jCUJtdLtvzyf863lDG4BNO1sMiUB82qGiRqMx19x8WW7k1dyiVkqjMtXxGsx4WxS1XTr9rlXge0III93zyOWrBuQiK8IUPZQ7ASiZkiCTReRqI/J0bkAy5CWfMN11v5TuSF8QFJDsPu7tjPjrJW650koqVo+8Amevr1WJVugNarvQLdgXjFWlBfrlA8+3fTayJBPGeT47dpqg7/DSUNte/8XzexW9YLRqQtIJXBWPoCacX8zQzv7gfp3s3GzQg6Sy1KBjzTVfSDv+KCNBoFJnk5Vj6HV7E9UUvIvrdZEcHabmS9KbK/rGpsrdiqwRpuZISDhrGE3DVn9d8Us8L6pYrlaaiakaYAUfMwgIv3SpBGpCUcnYVY9U72367955Pmt+mYozcbJuELxRulYD9WgS0JD21uIzY319dsSDgLEvC6OiEl2zkHwFjtOeTLhCzivGOTxxWuyUdaKRZXiPJeAJsUWdYNCAQpN/hRfcdj7EGJJEvld9Vz+37zEBLgW0OoflvlA30UNwFWf20v0sRVavrdYxnxuqLdLMEVj/WciUU2OkYA3dWhGoV3mUGW64Ei1bHmGu61qsaEGjPJ8mPdIyBm21CpsJhEW1AOmC8JakGO9n6bTbq0TvxvdF8zAbGLp80sGGxB1uuARAdSTMrwSnHCJKWawSKRtV3eEV4thJmf7TlCsCwR1L7yrxnNEhgez7JtXW6JXI32wKaa4TDItiAEDLSkMbuiplJveejzaqkY7wwqWC6Ig29XpSkgneI1eQfl9xLFtniKcagnvXIpaiqRbrovRFoyzUgUUjixr8rql4WesLRCd3zGcVmYBk/6J1t6J5PEEsdytVUDjJRhAqHRfDBuAbqzeXfWnbHx1xGLNcRVC9JXk1CMbOJxkX8IWxJ5LcQM7JKxpaPaIItVwe1MSTv/Ed1XILDIrrn00O1n+RLHDSXvceezwC1xcCw06vrKzgsVnxwmcAQJE81ncXwhDYgCxb2AtWRvIAatCAzLKYZC3tBQa68nzRh9sBvmk1Y2AuCA/gOr7s9Vg7u+YCtBkCjKcq0/gPTtHs+HaZ2AlQVeHuYvLMNHKJ77DwE5JpRW26wYtaALc6AVS2OMbPvs6o9Y7fnM2Km4BiDb87bLYZF8PIBkzvyrRx9/fB0wZ5PA6Y0pORUt1UbfJkZC4KaKVLYdB3vtVk8AdPrJSHhxjGOSj1UJIUBa7k6UO/Id3g1RYP0fMaW1TJwz6cHcxrLeLpblCfWGUFJSOoWKdeS+xH8MbTV5WwEjcEyZpqu4/BUf5cC3fMJoOBZxotMQFajH5wfGzTQ2PMzN9uOw1P9m+tbLLkTWrhYxhuWnNbqoQjc82lRa1Bl8ljMx0Vwz6dDFU9awSkMFK8I/B4VFcuYabqO42J9mwnu+Qxo5YK+tawRFMagDhDdDDai5iBIWYEfh1Sf5VnRcgVU8jzjWRq33wz6ybAB2bGXy9Iazxh8Z9taOTqBez4Ep1pSZ5XM8PTHfRuQFrYHQU4TDOsxVA6L2AEdrHnoO7hS5z/da/tbnY/BobOH8xrPGL3Z9ve6YRFsuQa4dvGMxR9y990cX+o2rsE9nxE2CJa5SPLLf68aFsE9nwCLnqCTNhKpfmle4dI9nwbPCgLG5aaLfVAxYMMi1oBwy29VjGd52BQZi4YMUBItbhEB4/K+j/G9NrDl6nADChiDLUj2mjvqNEHL1QNpQZWryw2Kxb02cM+H3WscNYzBna7sBeANIUEDMuImETAuN13c+9oqnokS1O+Ay17AWLyR06vnSIth+iv+l09tkjgONfaouB0VgJD5EfqBlRhVq0v8oCI6LAq0deIzTyy/yx9L69VKF1Szk42nmS3IEsYzNjzlkiV6E25TmDMsbGhIGBt9UDP6UKYg0w2nQFjZ+kXVl2YeVLzym2NOJ9/Pwhg0jI0+VB9tuxf8lNs5+Hv7zMWMi/rxgo/75qzGyCY3CeOar4po8EZGHveUsD5bkCWMxd8jbfuJzvzZ2oQs2IJc/1h0eXgitVIEmugSsmALMtno6zHoE65hCzJV55Dy8NSqM75AE0NCFmxBvrrL1A8SAguNCSOxBVnEeBHGW285LK54ftlS0ug1jFfDUDNsQJrUOtmCTPUCE46LaHfONyCUvARXkMkoifDJxf5TFtqkkbiCLGIc9eOifpDgS2KXPIQryAa5WvguL7SoBzxHhGT0BA1jffuoPjIiEfPrIVxBpnqFCT8UBOQuyB1j8hCuIBMoXPXodEEDEpKHcAVZxlj6LZ6FTSX7b6Bs0gvhCrKM8QWb6/WXpIxfmIJskKtL42KrrumK7cQ5nXRIw3i7v4/51NFm8itTkGWMd+242KmNpmhAQkYdQcE4aoenXp0K8AYk5q40auI43N4ehozWmIJMBhorDE+DNhMJitmYSTY7mOLfCHZcd2vOWL2G8awcnkZt28YnuiZbz0IxxQkZa2+2qeNf0YDMuRBsNYzX6nERHBYVJp5yciINY2ULcuUn1bVZPS3FVZBBIhGNi6C++bDvstl9vTxXrxecnQ+CPuuUrWht4ZoU34rwWnnosIinvC0vyFHjhaAcnpSjk2LPZxUeTGYqEzX7F+75LHn3DBrGs3J4ut+8Oefd02sY61oQ9T0YxS7XJEz0Frk6Py4O2mFRsc0U8u7pNIxXVeCq70jgt9midLFkIbOQa4SCNirw22x7YbGthvEuS+RPRk3mVBX5O9SdVrYgUe20yrZ6LSyCVJkrVGnw+ilzkR5+rz0QTKaKJ5vmwtUaFePpgv2CmparuL7ZwsfzPWWqeLQ6lFwQNIyXqmINjk54AxLFx9N1i7gr9qJGRg3jrUqEYGDi72bbxJejByUa66SxioOI7sMKHBbxlmspJspBwzja5SWTzD4WVTFZqLrqZhuW9xQWnMRhQSZKe/ytx1AUea9iXNWCYF3ZDlOMck3Z9NXGD9njm2K7/Ax0kZuqBLJW22i3YLzWEJoujIHU4mJ+0CITqRkPT3N9nggGPq5qQcLFaWGWn0LOOL6pMaNhCM4X5GrEbfFKRSSPWCwYB8tyYttyRUB1dGV0KXMA9+pFcMRmwXi2y2qLcQOyASsiq2UacsDz4ApEBpksxP5x8WrNBAPGmz67roaaFwbcdO0kYcsBb7km4CQA4/1ewxN+sgAYGWBcEaxz7frxla0Wqg4XbRdUW3ZHsg4BuprU65qQOMdHlg2JQbLRpvm9tuoCHh+bq0OtxxSlIBgwXszapFXxy+mV1iIrvsmA8ar1S4TOjEfIhMQgaeW2XxYCs03QLDzjyMXArh2edihQ4AYksrpZlT62mxe20v8D5/pJZNDNIleH7AmjXfaN8Fo2SFh3qU5sJt8FK13A08fMsZQyW8RbJ6wX3gtZaoMT1QItCfLxrKzAC6LkVeZJ/uHiiWc8Vazcblxc4ECfWP/MnI93gZkXoIjO2UVPZwXOsvQ3s/JdeB+zpf8ubzUfxUmAyTqf0yoghNmeN8+iGxbD6RVRSHRhFbnzPuYjKFgFbsjqfmfDdxP6J9NDElQ/J13JDSyLRRA54dWlVv7S/PeYr6yzZwEL1bTzsup/sMccV/eJvUjMMeYT05INtw3rG+eDhDdB+pxf/b3xwptZH+/sVT+rhsWdT/67IFUvrxjuvNqW5AKoVCULawceNZHUyiiYI9Y0w/wRn3kBfozfUBDoDyzZ35yRSC3vjmf5mH/tDzx9e8V+uGD+iCa5WEqEehS0Bzably9n+RubuH7IaE+mbmElODKeWYV+yoZ6gIbF7XiWfxyY57uBz4fQ+8T7Z84yXti8uxpNDvvxLH+ce5xMtfl0oDHx/Xz+Jd+jq9Bf/wyN028+5ON4ziaEUw4pNjLPr455fh3WBT4xPx//wU4UP3zwpTaCT18r+59f//yv0jH/9+rKK18k/uD3kbhU/dOy58T1Pu/jlKi+SmI7XpupcR9/FUyTW8mJz1bYAxlZ/33OpWpwt2A+JYw/n538nzLj/7jd4nDIxJ/4yfMz58GFtXNKBs95H4dciM0HlbA7Se/jKXPceEWW5v6n3AIPJ9my/UECe/ZKdQn/fWYlp0QbGA9y80RuqUjL9f3ldcnvHee/74rcubNwY+ATbxQJPlSfphEY7ZmreHfEO9Y/EqOtAqu8me8NiNW3sZ54Qd6e43ZzOBwOh8PhcDgcDofD4XA4HA6Hw+FwOBwOh8PhcDgcDofD4XA4HA6Hw+FwOBwOh8PhcDgcDofD4XA4HA6Hw+FwOBwOh8PhcDgcDofD4XA4HA6Hw+FwOBwOh8PhcDgcDofD4XA4HA6Hw+FwOBwOh8PhcDgcDofDweH/Af66vjRbj3xCAAAAAElFTkSuQmCC" vertex="1" parent="1">
          <mxGeometry x="632.12" y="624.25" width="144.44" height="48.5" as="geometry" />
        </mxCell>
        <mxCell id="wsxd1kLvyJPLzF5j_4qW-34" style="edgeStyle=orthogonalEdgeStyle;rounded=0;orthogonalLoop=1;jettySize=auto;html=1;entryX=0.5;entryY=0;entryDx=0;entryDy=0;strokeColor=#808080;strokeWidth=2;" edge="1" parent="1" source="wsxd1kLvyJPLzF5j_4qW-31" target="wsxd1kLvyJPLzF5j_4qW-22">
          <mxGeometry relative="1" as="geometry" />
        </mxCell>
        <mxCell id="wsxd1kLvyJPLzF5j_4qW-31" value="Android App&lt;br&gt;for Admin" style="outlineConnect=0;gradientColor=none;fontColor=#545B64;strokeColor=none;fillColor=#879196;dashed=0;verticalLabelPosition=bottom;verticalAlign=top;align=center;html=1;fontSize=12;fontStyle=0;aspect=fixed;shape=mxgraph.aws4.illustration_notification;pointerEvents=1;labelBackgroundColor=#ffffff;" vertex="1" parent="1">
          <mxGeometry x="476" y="132" width="100" height="81" as="geometry" />
        </mxCell>
        <mxCell id="wsxd1kLvyJPLzF5j_4qW-33" style="edgeStyle=orthogonalEdgeStyle;rounded=0;orthogonalLoop=1;jettySize=auto;html=1;strokeColor=#808080;strokeWidth=2;" edge="1" parent="1" source="wsxd1kLvyJPLzF5j_4qW-32" target="wsxd1kLvyJPLzF5j_4qW-31">
          <mxGeometry relative="1" as="geometry" />
        </mxCell>
        <mxCell id="wsxd1kLvyJPLzF5j_4qW-32" value="No Powered FPC" style="image;html=1;image=img/lib/clip_art/finance/Credit_Card_128x128.png" vertex="1" parent="1">
          <mxGeometry x="236" y="133" width="80" height="80" as="geometry" />
        </mxCell>
      </root>
    </mxGraphModel>
  </diagram>
</mxfile>
